{"glyphs":{"0":{"ha":814,"x_min":49,"x_max":765,"o":"m 407 -14 q 49 500 49 -14 q 137 883 49 760 q 405 1006 226 1006 q 674 877 584 1006 q 765 489 765 748 q 676 109 765 231 q 407 -14 589 -14 m 477 265 q 498 494 498 329 q 477 726 498 660 q 407 791 456 791 q 336 728 357 791 q 315 495 315 665 q 337 263 315 326 q 408 200 358 200 q 477 265 457 200 z "},"1":{"ha":814,"x_min":57,"x_max":639,"o":"m 639 0 l 367 0 l 367 525 q 371 700 367 621 q 309 636 342 665 l 196 543 l 57 714 l 397 991 l 639 991 l 639 0 z "},"2":{"ha":814,"x_min":31,"x_max":761,"o":"m 418 1006 q 583 971 508 1006 q 700 876 659 937 q 742 739 742 814 q 742 734 742 737 q 682 529 742 623 q 600 427 649 479 q 386 228 551 376 l 386 221 l 761 221 l 761 0 l 41 0 l 41 176 l 283 421 q 422 572 393 536 q 464 637 451 609 q 476 701 476 666 q 451 758 476 736 q 380 781 425 781 q 288 755 335 781 q 178 674 241 729 l 31 847 q 159 945 106 914 q 411 1006 266 1006 q 418 1006 414 1006 z "},"3":{"ha":814,"x_min":47,"x_max":757,"o":"m 399 1006 q 640 945 553 1006 q 728 777 728 884 q 671 618 728 684 q 509 522 614 552 l 509 518 q 757 283 757 486 q 647 65 757 146 q 343 -14 538 -14 q 197 -2 265 -14 q 47 40 129 9 l 47 262 q 304 197 176 197 q 433 222 392 197 q 473 303 473 247 q 426 382 473 359 q 262 407 378 405 l 201 407 l 201 608 l 264 608 q 468 713 468 608 q 438 770 468 751 q 357 790 409 790 q 160 726 261 790 l 49 905 q 209 982 127 959 q 399 1006 291 1006 z "},"4":{"ha":814,"x_min":24,"x_max":793,"o":"m 684 392 l 793 392 l 793 192 l 684 192 l 684 0 l 419 0 l 419 192 l 24 192 l 24 389 l 436 991 l 684 991 l 684 392 m 419 392 l 419 507 q 421 595 419 540 q 425 653 424 650 l 418 653 q 366 555 393 597 l 256 392 l 419 392 z "},"5":{"ha":814,"x_min":63,"x_max":750,"o":"m 334 637 q 450 650 399 650 q 454 650 452 650 q 666 562 581 650 q 750 339 750 473 q 750 330 750 334 q 649 74 750 162 q 347 -14 548 -14 q 63 40 173 -14 l 63 260 q 198 215 124 232 q 325 197 273 197 q 440 229 400 197 q 479 320 479 261 q 438 411 479 380 q 315 443 397 443 q 179 419 254 443 l 81 468 l 118 991 l 684 991 l 684 768 l 346 768 l 334 637 z "},"6":{"ha":814,"x_min":47,"x_max":771,"o":"m 297 546 q 492 661 358 661 q 698 576 626 661 q 771 333 771 491 q 679 81 771 175 q 416 -14 587 -14 q 146 101 245 -14 q 47 419 47 215 q 180 867 47 727 q 343 971 248 937 q 567 1006 438 1004 q 708 994 625 1006 l 708 785 q 561 798 641 798 q 361 739 427 798 q 289 546 295 680 l 297 546 m 418 454 q 343 423 372 454 q 314 347 314 392 q 341 240 314 282 q 414 199 369 199 q 486 232 460 199 q 511 334 511 266 q 418 454 511 454 z "},"7":{"ha":814,"x_min":53,"x_max":768,"o":"m 53 768 l 53 990 l 768 990 l 768 832 l 419 0 l 142 0 l 482 768 l 53 768 z "},"8":{"ha":814,"x_min":46,"x_max":770,"o":"m 164 942 q 208 974 164 942 q 410 1006 252 1006 q 654 943 567 1006 q 741 764 741 880 q 699 625 741 684 q 570 522 658 566 q 724 398 679 460 q 770 264 770 336 q 673 59 770 131 q 405 -14 578 -14 q 139 57 232 -14 q 46 261 46 128 q 87 408 46 348 q 227 518 129 469 q 112 631 149 570 q 75 765 75 691 q 164 942 75 879 m 489 742 q 489 757 489 742 q 466 792 489 772 q 408 812 442 812 q 350 792 373 812 q 326 741 326 772 q 406 637 326 681 q 471 688 456 666 q 489 742 489 712 m 404 404 q 318 341 345 373 q 292 269 292 309 q 322 204 292 229 q 404 179 352 179 q 524 267 524 179 q 497 332 524 300 q 404 404 471 364 z "},"9":{"ha":814,"x_min":36,"x_max":768,"o":"m 310 326 q 108 413 180 326 q 36 650 36 499 q 130 908 36 815 q 387 1002 224 1002 q 668 881 570 1002 q 768 538 768 760 q 643 117 768 248 q 241 -14 518 -14 q 103 -6 147 -14 l 103 205 q 220 195 159 195 q 443 255 366 195 q 526 441 519 315 l 518 441 q 466 371 492 393 q 310 326 413 326 m 471 744 q 395 787 441 787 q 322 754 349 787 q 296 659 296 722 q 320 564 296 596 q 390 532 345 532 q 469 564 435 532 q 501 640 501 595 q 471 744 501 700 z "},"\r":{"ha":361,"x_min":0,"x_max":0,"o":""}," ":{"ha":361,"x_min":0,"x_max":0,"o":""},"!":{"ha":403,"x_min":56,"x_max":349,"o":"m 314 350 l 90 350 l 56 991 l 349 991 l 314 350 m 58 113 q 58 144 58 113 q 95 209 58 174 q 201 243 132 243 q 306 209 270 243 q 342 113 342 175 q 305 17 342 52 q 201 -17 268 -17 q 96 17 134 -17 q 58 113 58 52 z "},"\"":{"ha":728,"x_min":82,"x_max":646,"o":"m 296 633 l 110 633 l 82 991 l 323 991 l 296 633 m 618 633 l 432 633 l 404 991 l 646 991 l 618 633 z "},"#":{"ha":920,"x_min":25,"x_max":895,"o":"m 895 728 l 895 551 l 707 551 l 686 437 l 851 437 l 851 265 l 654 265 l 604 0 l 422 0 l 472 265 l 358 265 l 310 0 l 129 0 l 178 265 l 25 265 l 25 437 l 211 437 l 232 551 l 71 551 l 71 728 l 265 728 l 314 991 l 496 991 l 446 728 l 558 728 l 607 991 l 789 991 l 739 728 l 895 728 m 412 551 l 392 437 l 504 437 l 525 551 l 412 551 z "},"$":{"ha":814,"x_min":54,"x_max":765,"o":"m 482 1054 l 482 962 q 754 896 614 956 l 673 703 q 418 766 533 766 q 342 753 365 766 q 320 711 319 741 q 354 663 320 682 q 500 603 387 644 q 702 489 639 554 q 765 323 765 425 q 692 138 765 209 q 482 50 619 67 l 482 -81 l 342 -81 l 342 46 q 56 113 191 54 l 56 338 q 227 271 134 298 q 383 244 319 244 q 473 258 447 244 q 499 304 500 273 q 461 356 499 335 q 316 416 424 376 q 155 497 208 456 q 78 586 102 537 q 54 708 54 635 q 342 961 54 932 l 342 1054 l 482 1054 z "},"%":{"ha":1317,"x_min":25,"x_max":1291,"o":"m 25 698 q 25 771 25 698 q 91 925 25 844 q 277 1006 157 1006 q 466 923 396 1006 q 536 693 536 840 q 469 465 536 547 q 281 383 402 383 q 93 467 161 383 q 25 698 25 551 m 481 0 l 279 0 l 829 991 l 1031 991 l 481 0 m 319 805 q 313 823 319 805 q 281 840 307 840 q 242 805 254 840 q 229 693 229 770 q 281 546 229 546 q 319 581 307 546 q 332 693 332 615 q 319 805 332 770 m 779 303 q 779 377 779 303 q 845 530 779 450 q 1031 611 911 611 q 1220 528 1150 611 q 1291 299 1291 445 q 1223 71 1291 153 q 1035 -11 1156 -11 q 847 73 915 -11 q 779 303 779 157 m 1035 446 q 996 410 1008 446 q 983 298 983 375 q 1035 151 983 151 q 1086 298 1086 151 q 1035 446 1086 446 z "},"&":{"ha":1109,"x_min":49,"x_max":1117,"o":"m 401 -14 q 147 66 245 -14 q 49 267 49 146 q 49 275 49 271 q 233 547 49 452 q 144 768 144 647 q 228 941 144 876 q 457 1004 312 1004 q 681 941 602 1004 q 761 768 761 878 q 718 628 761 692 q 582 509 674 565 l 717 380 q 787 557 768 460 l 1063 557 q 999 370 1043 465 q 900 208 954 275 l 1117 0 l 774 0 l 707 69 q 606 16 644 30 q 408 -14 527 -14 q 401 -14 404 -14 m 504 815 q 494 823 504 815 q 454 831 485 831 q 404 813 424 831 q 383 760 383 795 q 443 654 383 708 q 502 706 481 676 q 522 768 522 736 q 504 815 522 800 m 322 294 q 353 224 322 252 q 433 197 383 197 q 546 231 505 197 l 378 401 q 322 294 322 360 z "},"'":{"ha":406,"x_min":82,"x_max":323,"o":"m 296 633 l 110 633 l 82 991 l 323 991 l 296 633 z "},"(":{"ha":498,"x_min":50,"x_max":461,"o":"m 461 1019 q 329 739 375 899 q 283 399 283 578 q 328 61 283 220 q 460 -220 372 -98 l 240 -220 q 50 396 50 -1 q 240 1019 50 792 l 461 1019 z "},")":{"ha":498,"x_min":37,"x_max":449,"o":"m 258 1019 q 400 747 352 907 q 449 395 449 587 q 400 45 449 203 q 258 -220 352 -112 l 39 -220 q 169 56 123 -104 q 215 397 215 216 q 170 738 215 577 q 37 1019 125 898 l 258 1019 z "},"*":{"ha":746,"x_min":31,"x_max":717,"o":"m 450 817 l 692 885 l 717 685 l 504 670 l 644 482 l 468 389 l 371 581 l 288 390 l 103 482 l 243 670 l 31 688 l 61 885 l 297 817 l 271 1055 l 476 1055 l 450 817 z "},"+":{"ha":786,"x_min":49,"x_max":736,"o":"m 484 581 l 736 581 l 736 399 l 484 399 l 484 154 l 301 154 l 301 399 l 49 399 l 49 581 l 301 581 l 301 829 l 484 829 l 484 581 z "},",":{"ha":429,"x_min":39,"x_max":347,"o":"m 338 203 l 347 187 q 228 -193 280 -75 l 39 -193 q 77 14 56 -111 q 106 203 99 139 l 338 203 z "},"-":{"ha":441,"x_min":29,"x_max":412,"o":"m 412 267 l 29 267 l 29 478 l 412 478 l 412 267 z "},".":{"ha":401,"x_min":58,"x_max":342,"o":"m 58 114 q 58 145 58 114 q 95 209 58 176 q 201 243 132 243 q 306 209 270 243 q 342 113 342 175 q 305 17 342 52 q 201 -17 268 -17 q 97 17 135 -17 q 58 114 58 52 z "},"/":{"ha":614,"x_min":6,"x_max":611,"o":"m 241 -14 l 6 -14 l 376 1006 l 611 1006 l 241 -14 z "},":":{"ha":401,"x_min":58,"x_max":342,"o":"m 58 649 q 58 679 58 649 q 96 744 58 710 q 202 778 134 778 q 306 744 270 778 q 342 649 342 710 q 305 553 342 587 q 201 518 269 518 q 96 553 134 518 q 58 649 58 587 m 58 114 q 58 145 58 114 q 95 209 58 176 q 201 243 132 243 q 306 209 270 243 q 342 113 342 175 q 305 17 342 52 q 201 -17 268 -17 q 97 17 135 -17 q 58 114 58 52 z "},";":{"ha":412,"x_min":39,"x_max":347,"o":"m 62 649 q 62 680 62 649 q 99 744 62 711 q 204 778 136 778 q 309 744 273 778 q 346 649 346 710 q 309 553 346 587 q 205 518 273 518 q 100 552 137 518 q 62 649 62 587 m 338 203 l 347 187 q 228 -193 280 -75 l 39 -193 q 77 14 56 -111 q 106 203 99 139 l 338 203 z "},"<":{"ha":786,"x_min":49,"x_max":734,"o":"m 734 684 l 314 492 l 734 321 l 734 121 l 49 425 l 49 542 l 734 885 l 734 684 z "},"=":{"ha":786,"x_min":49,"x_max":737,"o":"m 737 553 l 49 553 l 49 734 l 737 734 l 737 553 m 737 243 l 49 243 l 49 427 l 737 427 l 737 243 z "},">":{"ha":786,"x_min":49,"x_max":734,"o":"m 734 542 l 734 425 l 49 121 l 49 321 l 469 492 l 49 684 l 49 885 l 734 542 z "},"?":{"ha":701,"x_min":0,"x_max":675,"o":"m 353 1006 q 589 940 503 1006 q 675 758 675 874 q 637 616 675 677 q 523 507 600 556 q 427 435 446 458 q 408 385 408 413 l 408 350 l 200 350 l 200 408 q 228 520 200 475 q 317 606 255 566 q 403 673 380 645 q 427 732 427 701 q 401 781 427 764 q 334 798 375 798 q 94 725 232 798 l 0 909 q 353 1006 168 1006 m 171 113 q 171 144 171 113 q 207 209 171 176 q 312 243 243 243 q 418 209 381 243 q 454 113 454 174 q 417 17 454 52 q 313 -17 380 -17 q 209 17 246 -17 q 171 113 171 50 z "},"@":{"ha":1246,"x_min":56,"x_max":1190,"o":"m 619 -104 q 205 33 355 -104 q 56 414 56 170 q 134 722 56 586 q 348 931 212 857 q 650 1004 484 1004 q 937 944 815 1004 q 1125 772 1059 884 q 1190 513 1190 661 q 1157 334 1190 416 q 1066 204 1124 251 q 933 158 1008 158 q 836 179 880 158 q 768 239 793 201 l 758 239 q 582 158 686 158 q 392 230 458 158 q 325 433 325 302 q 325 441 325 437 q 419 668 325 580 q 665 755 513 755 q 671 755 668 755 q 794 744 725 755 q 914 714 863 732 l 900 428 l 899 364 q 932 306 899 306 q 989 365 967 306 q 1011 514 1011 424 q 920 764 1011 675 q 659 852 829 852 q 653 852 656 852 q 352 733 465 852 q 240 418 240 614 q 240 411 240 414 q 336 144 240 238 q 604 50 433 50 q 958 115 774 50 l 958 -40 q 619 -104 806 -104 m 674 607 q 558 561 601 607 q 515 435 515 515 q 539 338 515 370 q 610 306 563 306 q 682 348 656 306 q 714 497 707 390 l 721 603 q 674 607 694 607 z "},"A":{"ha":1008,"x_min":0,"x_max":1008,"o":"m 1008 0 l 715 0 l 666 186 l 345 186 l 294 0 l 0 0 l 323 996 l 681 996 l 1008 0 m 611 406 l 568 568 q 504 832 524 724 q 479 718 498 798 q 400 406 463 642 l 611 406 z "},"B":{"ha":936,"x_min":107,"x_max":871,"o":"m 107 991 l 453 991 q 753 931 656 991 q 851 745 851 871 q 808 602 851 661 q 696 526 766 543 l 696 519 q 829 439 787 495 q 871 290 871 382 q 770 78 871 156 q 493 0 669 0 l 107 0 l 107 991 m 375 789 l 375 611 l 456 611 q 545 635 514 611 q 576 705 576 659 q 450 789 576 789 l 375 789 m 375 415 l 375 207 l 469 207 q 595 313 595 207 q 561 389 595 362 q 464 415 528 415 l 375 415 z "},"C":{"ha":901,"x_min":71,"x_max":859,"o":"m 534 -14 q 190 117 310 -14 q 71 493 71 248 q 71 503 71 498 q 200 867 71 728 q 543 1006 329 1006 q 551 1006 547 1006 q 859 936 713 1006 l 777 725 q 660 770 713 755 q 549 786 607 786 q 400 708 454 786 q 346 492 346 629 q 564 205 346 205 q 815 268 665 205 l 815 41 q 534 -14 691 -14 z "},"D":{"ha":1019,"x_min":107,"x_max":949,"o":"m 107 991 l 450 991 q 819 869 689 991 q 949 517 949 747 q 812 134 949 269 q 428 0 675 0 l 107 0 l 107 991 m 375 775 l 375 220 l 435 220 q 613 290 556 220 q 670 502 670 361 q 616 709 670 644 q 453 775 563 775 l 375 775 z "},"E":{"ha":762,"x_min":107,"x_max":696,"o":"m 696 777 l 375 777 l 375 621 l 671 621 l 671 406 l 375 406 l 375 218 l 696 218 l 696 0 l 107 0 l 107 991 l 696 991 l 696 777 z "},"F":{"ha":749,"x_min":107,"x_max":693,"o":"m 693 777 l 371 777 l 371 587 l 667 587 l 667 372 l 371 372 l 371 0 l 107 0 l 107 991 l 693 991 l 693 777 z "},"G":{"ha":1028,"x_min":71,"x_max":933,"o":"m 933 581 l 933 46 q 550 -14 760 -14 q 195 119 320 -14 q 71 496 71 252 q 208 872 71 739 q 591 1006 345 1006 q 913 943 770 1006 l 828 733 q 598 786 722 786 q 411 710 475 786 q 347 493 347 633 q 405 280 347 353 q 572 207 463 207 q 682 218 631 207 l 682 374 l 505 374 l 505 581 l 933 581 z "},"H":{"ha":1064,"x_min":107,"x_max":957,"o":"m 957 0 l 688 0 l 688 404 l 376 404 l 376 0 l 107 0 l 107 991 l 376 991 l 376 624 l 688 624 l 688 991 l 957 991 l 957 0 z "},"I":{"ha":484,"x_min":107,"x_max":376,"o":"m 376 0 l 107 0 l 107 991 l 376 991 l 376 0 z "},"J":{"ha":489,"x_min":-110,"x_max":382,"o":"m -110 -89 q -11 -103 -46 -103 q 83 -63 54 -103 q 113 74 113 -24 l 113 991 l 382 991 l 382 97 q 293 -208 382 -105 q 29 -311 205 -311 q -110 -297 -43 -311 l -110 -89 z "},"K":{"ha":954,"x_min":107,"x_max":960,"o":"m 376 0 l 107 0 l 107 991 l 376 991 l 376 561 q 458 688 399 604 l 666 991 l 960 991 l 647 547 l 954 0 l 652 0 l 456 379 l 376 332 l 376 0 z "},"L":{"ha":808,"x_min":107,"x_max":757,"o":"m 375 216 l 757 216 l 757 0 l 107 0 l 107 991 l 375 991 l 375 216 z "},"M":{"ha":1343,"x_min":107,"x_max":1236,"o":"m 1236 0 l 990 0 l 990 435 q 991 510 990 482 q 1000 713 991 537 l 994 713 l 794 0 l 539 0 l 336 714 l 330 714 q 345 431 345 532 l 345 0 l 107 0 l 107 991 l 464 991 l 670 288 l 675 288 l 879 991 l 1236 991 l 1236 0 z "},"N":{"ha":1158,"x_min":107,"x_max":1051,"o":"m 1051 0 l 700 0 l 338 699 l 332 699 q 345 447 345 538 l 345 0 l 107 0 l 107 991 l 457 991 l 818 302 l 822 302 q 812 543 812 458 l 812 991 l 1051 991 l 1051 0 z "},"O":{"ha":1107,"x_min":71,"x_max":1035,"o":"m 194 876 q 554 1007 318 1007 q 913 878 791 1007 q 1035 497 1035 748 q 912 117 1035 247 q 554 -14 789 -14 q 195 117 319 -14 q 71 497 71 248 q 194 876 71 745 m 554 787 q 353 498 353 787 q 553 210 353 210 q 704 279 654 210 q 753 497 753 349 q 703 716 753 645 q 554 787 654 787 z "},"P":{"ha":878,"x_min":107,"x_max":827,"o":"m 107 991 l 450 991 q 731 910 636 991 q 827 675 827 829 q 728 419 827 509 q 450 329 630 329 l 375 329 l 375 0 l 107 0 l 107 991 m 375 775 l 375 547 l 424 547 q 520 581 484 547 q 555 674 555 615 q 444 775 555 775 l 375 775 z "},"Q":{"ha":1107,"x_min":71,"x_max":1063,"o":"m 195 117 q 71 497 71 248 q 194 876 71 745 q 554 1007 318 1007 q 913 878 791 1007 q 1035 497 1035 748 q 821 43 1035 159 l 1063 -236 l 729 -236 l 554 -16 l 553 -15 l 553 -14 l 553 -14 q 195 117 319 -14 m 554 787 q 353 498 353 787 q 553 210 353 210 q 704 279 654 210 q 753 497 753 349 q 703 716 753 645 q 554 787 654 787 z "},"R":{"ha":940,"x_min":107,"x_max":957,"o":"m 107 991 l 432 991 q 836 699 836 991 q 667 432 836 526 l 957 0 l 653 0 l 443 361 l 375 361 l 375 0 l 107 0 l 107 991 m 375 789 l 375 562 l 425 562 q 566 686 566 562 q 428 789 566 789 l 375 789 z "},"S":{"ha":802,"x_min":61,"x_max":755,"o":"m 61 288 q 219 227 135 249 q 367 204 304 204 q 459 224 430 204 q 488 278 488 244 q 440 345 488 315 q 312 407 413 361 q 163 494 211 452 q 67 714 67 575 q 168 929 67 852 q 441 1006 268 1006 q 755 935 595 1006 l 673 728 q 433 791 535 791 q 358 774 383 791 q 334 728 334 756 q 363 675 334 699 q 522 594 390 654 q 705 468 654 534 q 755 301 755 401 q 755 296 755 298 q 651 73 755 160 q 375 -14 546 -14 q 367 -14 371 -14 q 201 0 270 -14 q 61 49 133 14 l 61 288 z "},"T":{"ha":821,"x_min":35,"x_max":786,"o":"m 786 772 l 545 772 l 545 0 l 277 0 l 277 772 l 35 772 l 35 991 l 786 991 l 786 772 z "},"U":{"ha":1051,"x_min":102,"x_max":950,"o":"m 950 991 l 950 395 q 840 93 950 199 q 525 -14 730 -14 q 210 90 319 -14 q 102 389 102 194 l 102 991 l 371 991 l 371 410 q 410 258 371 306 q 528 210 448 210 q 645 257 608 210 q 682 411 682 304 l 682 991 l 950 991 z "},"V":{"ha":964,"x_min":0,"x_max":964,"o":"m 639 0 l 323 0 l 0 991 l 301 991 l 436 489 q 482 256 478 319 q 502 378 488 307 q 526 486 516 450 l 663 991 l 964 991 l 639 0 z "},"W":{"ha":1443,"x_min":21,"x_max":1422,"o":"m 1178 0 l 861 0 l 766 432 q 747 529 762 450 q 724 674 732 609 q 667 377 712 581 q 583 0 642 264 l 267 0 l 21 991 l 279 991 l 387 494 q 437 232 425 326 q 469 421 447 306 q 511 616 492 536 l 599 991 l 847 991 l 932 616 q 977 401 956 517 q 1006 232 999 286 q 1054 493 1016 314 l 1164 991 l 1422 991 l 1178 0 z "},"X":{"ha":1004,"x_min":3,"x_max":1000,"o":"m 662 486 l 1000 0 l 690 0 l 497 310 l 306 0 l 3 0 l 332 507 l 22 991 l 319 991 l 498 685 l 670 991 l 977 991 l 662 486 z "},"Y":{"ha":922,"x_min":0,"x_max":922,"o":"m 596 0 l 326 0 l 326 379 l 0 991 l 292 991 l 461 624 l 632 991 l 922 991 l 596 387 l 596 0 z "},"Z":{"ha":848,"x_min":41,"x_max":814,"o":"m 814 216 l 814 0 l 41 0 l 41 165 l 471 775 l 52 775 l 52 991 l 803 991 l 803 827 l 374 216 l 814 216 z "},"[":{"ha":450,"x_min":79,"x_max":418,"o":"m 418 847 l 294 847 l 294 -61 l 418 -61 l 418 -233 l 79 -233 l 79 1019 l 418 1019 l 418 847 z "},"\\":{"ha":614,"x_min":4,"x_max":608,"o":"m 608 -14 l 374 -14 l 4 1006 l 239 1006 l 608 -14 z "},"]":{"ha":450,"x_min":32,"x_max":371,"o":"m 371 -233 l 32 -233 l 32 -61 l 155 -61 l 155 847 l 32 847 l 32 1019 l 371 1019 l 371 -233 z "},"^":{"ha":729,"x_min":-11,"x_max":747,"o":"m 747 340 l 547 340 l 351 732 l 267 534 l 183 340 l -11 340 l 288 996 l 403 996 l 747 340 z "},"_":{"ha":694,"x_min":-3,"x_max":697,"o":"m 697 -257 l -3 -257 l -3 -90 l 697 -90 l 697 -257 z "},"`":{"ha":831,"x_min":179,"x_max":648,"o":"m 179 1064 l 471 1064 q 608 906 507 1016 l 648 861 l 648 842 l 472 842 q 339 931 425 871 q 179 1050 253 992 l 179 1064 z "},"a":{"ha":865,"x_min":50,"x_max":777,"o":"m 467 782 q 695 708 614 782 q 777 504 777 634 l 777 0 l 593 0 l 542 102 l 536 102 q 427 11 481 35 q 283 -14 372 -14 q 113 52 175 -14 q 50 236 50 117 q 134 416 50 355 q 383 485 218 477 l 511 489 l 511 500 q 418 595 511 595 q 204 538 334 595 l 127 713 q 467 782 262 782 m 321 244 q 396 174 321 174 q 479 204 445 174 q 513 283 513 235 l 513 343 l 452 340 q 321 244 321 336 z "},"b":{"ha":893,"x_min":92,"x_max":833,"o":"m 357 1055 l 357 817 q 347 669 357 779 l 357 669 q 558 782 430 782 q 760 676 686 782 q 833 386 833 573 q 759 93 833 199 q 553 -14 685 -14 q 417 21 474 -14 q 357 75 391 37 l 340 75 l 298 0 l 92 0 l 92 1055 l 357 1055 m 357 414 l 357 376 q 382 241 357 282 q 467 200 408 200 q 538 248 513 200 q 564 389 564 296 q 464 574 564 574 q 382 535 408 574 q 357 414 357 496 z "},"c":{"ha":749,"x_min":58,"x_max":714,"o":"m 441 -14 q 156 88 254 -14 q 58 381 58 189 q 163 676 58 572 q 463 782 269 782 q 714 724 595 782 l 636 528 q 542 563 581 551 q 463 574 503 574 q 363 524 398 574 q 328 382 328 473 q 464 197 328 197 q 688 265 581 197 l 688 54 q 441 -14 585 -14 z "},"d":{"ha":893,"x_min":58,"x_max":802,"o":"m 802 0 l 602 0 l 545 97 l 534 97 q 330 -14 467 -14 q 323 -14 327 -14 q 132 94 205 -14 q 58 386 58 201 q 134 675 58 571 q 340 782 209 782 q 454 755 406 782 q 542 669 503 729 l 547 669 q 534 850 534 758 l 534 1055 l 802 1055 l 802 0 m 557 380 q 528 525 557 481 q 436 568 499 568 q 355 519 384 568 q 326 380 326 470 q 355 243 326 290 q 443 196 385 196 q 528 235 501 196 q 557 359 555 274 l 557 380 z "},"e":{"ha":859,"x_min":58,"x_max":800,"o":"m 463 -14 q 164 88 271 -14 q 58 383 58 191 q 157 677 58 574 q 433 782 255 782 q 705 691 610 782 q 800 431 800 600 l 800 313 l 326 313 q 373 212 329 248 q 492 175 418 175 q 623 188 566 175 q 750 233 680 201 l 750 43 q 620 -2 685 9 q 463 -14 555 -14 m 559 479 q 528 568 558 535 q 448 602 498 602 q 368 571 398 602 q 332 479 337 541 l 559 479 z "},"f":{"ha":574,"x_min":31,"x_max":608,"o":"m 138 778 q 200 997 138 930 q 399 1063 262 1063 q 499 1055 452 1063 q 608 1026 547 1046 l 551 854 q 456 868 501 868 q 411 849 425 868 q 397 789 397 831 l 397 768 l 561 768 l 561 570 l 397 570 l 397 0 l 132 0 l 132 570 l 31 570 l 31 700 l 138 765 l 138 778 z "},"g":{"ha":842,"x_min":14,"x_max":817,"o":"m 424 180 l 551 180 q 810 -37 810 180 q 690 -256 810 -178 q 354 -334 571 -334 q 102 -279 191 -334 q 14 -122 14 -224 q 184 56 14 16 q 123 103 150 69 q 97 171 97 138 q 117 233 97 205 q 199 298 136 260 q 104 382 138 326 q 71 518 71 439 q 156 712 71 643 q 400 782 241 782 q 477 777 425 782 q 549 768 529 772 l 817 768 l 817 640 l 711 602 q 733 510 733 562 q 645 317 733 385 q 386 249 557 249 q 318 254 345 249 q 309 221 309 237 q 340 191 309 201 q 424 180 371 180 m 403 635 q 321 517 321 635 q 403 399 321 399 q 482 517 482 399 q 403 635 482 635 m 443 -26 l 339 -26 q 267 -46 296 -26 q 237 -97 237 -66 q 273 -148 237 -128 q 367 -168 308 -168 q 521 -144 463 -168 q 579 -82 579 -120 q 443 -26 579 -26 z "},"h":{"ha":930,"x_min":92,"x_max":842,"o":"m 357 1055 l 357 905 q 346 673 357 800 l 358 673 q 447 756 395 731 q 570 782 498 782 q 770 707 699 782 q 842 500 842 633 l 842 0 l 575 0 l 575 419 q 484 574 575 574 q 388 519 418 574 q 357 338 357 465 l 357 0 l 92 0 l 92 1055 l 357 1055 z "},"i":{"ha":452,"x_min":86,"x_max":368,"o":"m 86 960 q 120 1049 86 1020 q 226 1078 153 1078 q 334 1048 299 1078 q 368 960 368 1019 q 227 843 368 843 q 86 960 86 843 m 358 0 l 93 0 l 93 768 l 358 768 l 358 0 z "},"j":{"ha":450,"x_min":-71,"x_max":367,"o":"m 85 960 q 118 1049 85 1020 q 225 1078 152 1078 q 332 1048 298 1078 q 367 960 367 1019 q 226 843 367 843 q 85 960 85 843 m 357 768 l 357 -62 q 282 -261 357 -189 q 72 -334 208 -334 q -3 -328 42 -334 q -71 -317 -49 -323 l -71 -110 q 11 -122 -27 -122 q 92 -6 92 -122 l 92 768 l 357 768 z "},"k":{"ha":916,"x_min":92,"x_max":916,"o":"m 358 1055 l 358 640 q 343 432 358 532 l 349 432 q 431 551 395 506 l 603 768 l 899 768 l 632 441 l 916 0 l 612 0 l 444 275 l 358 210 l 358 0 l 92 0 l 92 1055 l 358 1055 z "},"l":{"ha":449,"x_min":92,"x_max":357,"o":"m 357 0 l 92 0 l 92 1055 l 357 1055 l 357 0 z "},"m":{"ha":1389,"x_min":92,"x_max":1300,"o":"m 1034 782 q 1235 712 1169 782 q 1300 500 1300 643 l 1300 0 l 1035 0 l 1035 418 q 1014 535 1035 496 q 946 574 992 574 q 857 522 885 574 q 828 358 828 469 l 828 0 l 562 0 l 562 418 q 542 535 562 496 q 476 574 521 574 q 385 518 413 574 q 357 336 357 462 l 357 0 l 92 0 l 92 768 l 292 768 l 325 673 l 340 673 q 429 754 371 726 q 561 782 486 782 q 794 681 727 782 l 815 681 q 906 755 848 728 q 1034 782 964 782 z "},"n":{"ha":930,"x_min":92,"x_max":842,"o":"m 572 782 q 771 707 701 782 q 842 500 842 633 l 842 0 l 576 0 l 576 419 q 554 535 576 497 q 484 574 532 574 q 386 520 416 574 q 357 336 357 466 l 357 0 l 92 0 l 92 768 l 292 768 l 325 673 l 340 673 q 572 782 408 782 z "},"o":{"ha":885,"x_min":58,"x_max":825,"o":"m 450 782 q 644 734 558 782 q 778 596 730 686 q 825 393 825 507 q 825 386 825 389 q 724 92 825 197 q 444 -14 622 -14 q 161 94 265 -14 q 58 388 58 203 q 159 677 58 574 q 444 782 260 782 q 450 782 447 782 m 555 385 q 555 436 555 385 q 529 536 555 487 q 442 585 503 585 q 355 536 382 585 q 328 386 328 487 q 355 234 328 284 q 442 183 382 183 q 529 233 503 183 q 555 385 555 283 z "},"p":{"ha":893,"x_min":92,"x_max":833,"o":"m 357 670 q 560 782 431 782 q 761 675 689 782 q 833 385 833 570 q 758 93 833 199 q 553 -14 682 -14 q 447 6 492 -14 q 357 75 401 26 l 345 75 q 357 -25 357 -5 l 357 -334 l 92 -334 l 92 768 l 307 768 l 345 670 l 357 670 m 357 387 q 383 244 357 289 q 464 200 410 200 q 541 244 517 200 q 564 388 564 288 q 541 531 564 488 q 463 574 517 574 q 383 534 408 574 q 357 408 359 494 l 357 387 z "},"q":{"ha":893,"x_min":58,"x_max":802,"o":"m 536 97 q 338 -14 471 -14 q 132 92 205 -14 q 58 384 58 198 q 133 676 58 570 q 338 782 208 782 q 547 673 477 782 l 553 673 l 572 768 l 802 768 l 802 -334 l 536 -334 l 536 -16 q 545 97 536 7 l 536 97 m 557 355 l 557 387 q 529 533 557 489 q 437 576 501 576 q 328 379 328 576 q 355 236 328 280 q 443 192 382 192 q 530 230 503 192 q 557 355 557 267 z "},"r":{"ha":652,"x_min":92,"x_max":636,"o":"m 555 782 q 621 777 587 782 l 636 774 l 612 524 q 522 532 580 532 q 397 493 437 532 q 357 378 357 454 l 357 0 l 92 0 l 92 768 l 289 768 l 330 646 l 343 646 q 436 744 376 707 q 555 782 496 782 z "},"s":{"ha":741,"x_min":81,"x_max":685,"o":"m 349 179 q 435 218 435 179 q 410 254 435 239 q 271 317 386 271 q 122 416 164 361 q 81 555 81 471 q 163 722 81 662 q 389 782 245 782 q 679 717 533 782 l 607 546 q 495 587 552 570 q 399 603 437 603 q 334 571 334 603 q 356 537 334 551 q 488 481 383 522 q 608 416 568 448 q 685 233 685 353 q 601 50 685 113 q 359 -14 517 -14 q 212 -4 276 -14 q 82 29 147 5 l 82 241 q 219 196 144 214 q 349 179 293 179 z "},"t":{"ha":639,"x_min":36,"x_max":596,"o":"m 396 768 l 585 768 l 585 570 l 396 570 l 396 271 q 468 196 396 196 q 596 222 522 196 l 596 29 q 494 -3 542 5 q 380 -14 446 -14 q 189 51 248 -14 q 129 253 129 116 l 129 570 l 36 570 l 36 677 l 154 761 l 222 922 l 396 922 l 396 768 z "},"u":{"ha":930,"x_min":90,"x_max":839,"o":"m 839 0 l 639 0 l 606 96 l 590 96 q 497 15 557 43 q 358 -14 438 -14 q 160 60 231 -14 q 90 268 90 134 l 90 768 l 355 768 l 355 349 q 377 234 355 272 q 447 196 399 196 q 545 250 515 196 q 574 432 574 303 l 574 768 l 839 768 l 839 0 z "},"v":{"ha":848,"x_min":0,"x_max":848,"o":"m 419 236 l 424 236 q 436 313 424 271 l 572 768 l 848 768 l 555 0 l 293 0 l 0 768 l 277 768 l 407 314 l 410 298 q 419 236 419 258 z "},"w":{"ha":1264,"x_min":17,"x_max":1247,"o":"m 1036 0 l 753 0 l 665 366 l 646 477 l 632 566 l 628 566 q 583 326 595 378 l 505 0 l 227 0 l 17 768 l 278 768 l 340 473 q 375 221 370 321 l 379 221 q 416 458 381 286 l 488 768 l 781 768 l 846 454 q 885 221 876 308 l 889 221 q 902 343 892 264 q 924 473 911 421 l 991 768 l 1247 768 l 1036 0 z "},"x":{"ha":875,"x_min":6,"x_max":868,"o":"m 618 392 l 868 0 l 567 0 l 437 233 l 309 0 l 6 0 l 254 392 l 20 768 l 321 768 l 437 553 l 557 768 l 859 768 l 618 392 z "},"y":{"ha":847,"x_min":-1,"x_max":847,"o":"m 178 -334 q 69 -322 127 -334 l 69 -114 q 145 -122 105 -122 q 259 -70 220 -122 q 301 11 279 -45 l -1 768 l 278 768 l 408 328 q 421 244 418 290 l 427 244 q 443 326 431 290 l 576 768 l 847 768 l 543 -49 q 400 -269 485 -205 q 178 -334 315 -334 z "},"z":{"ha":704,"x_min":33,"x_max":669,"o":"m 669 203 l 669 0 l 33 0 l 33 151 l 351 566 l 52 566 l 52 768 l 654 768 l 654 604 l 350 203 l 669 203 z "},"{":{"ha":602,"x_min":41,"x_max":557,"o":"m 557 1006 l 557 817 q 475 807 497 814 q 428 745 428 792 l 428 561 q 389 443 428 484 q 265 390 351 402 l 265 382 q 390 329 351 368 q 428 215 428 289 l 428 28 q 441 -13 428 1 q 480 -35 455 -28 q 557 -45 505 -43 l 557 -233 q 349 -212 424 -233 q 241 -143 274 -190 q 208 0 208 -96 l 208 168 q 163 253 208 222 q 41 283 118 283 l 41 488 q 164 518 119 488 q 208 603 208 548 l 208 775 q 241 917 208 870 q 350 984 275 963 q 557 1006 425 1006 z "},"|":{"ha":707,"x_min":262,"x_max":444,"o":"m 444 -302 l 262 -302 l 262 1055 l 444 1055 l 444 -302 z "},"}":{"ha":602,"x_min":45,"x_max":559,"o":"m 45 1006 q 252 984 177 1006 q 360 916 327 962 q 393 775 393 870 l 393 603 q 437 518 393 548 q 559 488 481 488 l 559 283 q 438 253 484 283 q 393 168 393 222 l 393 0 q 360 -142 393 -95 q 252 -212 327 -190 q 45 -233 177 -233 l 45 -45 q 145 -25 116 -42 q 174 28 174 -8 l 174 215 q 212 329 174 289 q 336 382 250 368 l 336 390 q 212 443 251 402 q 174 561 174 484 l 174 745 q 126 807 174 791 q 45 817 104 814 l 45 1006 z "},"~":{"ha":786,"x_min":49,"x_max":736,"o":"m 557 358 q 465 369 509 358 q 367 401 421 379 q 205 439 279 439 q 49 357 132 439 l 49 547 q 228 621 119 621 q 316 611 273 621 q 418 578 359 602 q 579 541 505 541 q 656 563 614 541 q 736 623 698 585 l 736 432 q 557 358 665 358 z "},"¡":{"ha":403,"x_min":56,"x_max":349,"o":"m 62 652 q 62 683 62 652 q 99 748 62 714 q 203 782 136 782 q 309 748 271 782 q 346 652 346 714 q 309 556 346 591 q 203 522 273 522 q 98 556 134 522 q 62 652 62 590 m 349 -227 l 56 -227 l 90 415 l 314 415 l 349 -227 z "},"¢":{"ha":814,"x_min":87,"x_max":743,"o":"m 524 1006 l 524 901 q 743 844 638 895 l 665 648 q 571 683 609 672 q 492 694 532 694 q 392 644 427 694 q 357 503 357 594 q 493 318 357 318 q 717 386 610 318 l 717 175 q 524 109 631 120 l 524 -14 l 383 -14 l 383 113 q 163 232 239 134 q 87 497 87 331 q 164 764 87 663 q 383 893 240 865 l 383 1006 l 524 1006 z "},"£":{"ha":814,"x_min":69,"x_max":790,"o":"m 182 628 l 182 708 q 261 930 182 854 q 487 1007 340 1007 q 765 951 633 1007 l 690 755 q 519 793 591 793 q 461 770 480 793 q 443 700 443 748 l 443 628 l 675 628 l 675 440 l 443 440 l 443 375 q 335 221 443 273 l 790 221 l 790 0 l 71 0 l 71 212 q 144 264 123 242 q 182 374 182 302 l 182 440 l 69 440 l 69 628 l 182 628 z "},"¥":{"ha":814,"x_min":5,"x_max":808,"o":"m 694 509 l 694 366 l 530 366 l 530 286 l 694 286 l 694 144 l 530 144 l 530 0 l 283 0 l 283 144 l 117 144 l 117 286 l 283 286 l 283 366 l 117 366 l 117 509 l 245 509 l 5 991 l 277 991 l 407 650 l 538 991 l 808 991 l 562 509 l 694 509 z "},"¦":{"ha":707,"x_min":262,"x_max":444,"o":"m 444 486 l 262 486 l 262 1055 l 444 1055 l 444 486 m 444 -302 l 262 -302 l 262 267 l 444 267 l 444 -302 z "},"§":{"ha":694,"x_min":72,"x_max":629,"o":"m 319 134 q 414 199 414 134 q 393 248 414 227 q 286 307 372 269 q 159 377 201 345 q 72 545 72 444 q 101 629 72 588 q 183 703 130 670 q 87 867 87 772 q 162 1016 87 962 q 365 1069 237 1069 q 614 1011 492 1069 l 547 861 q 364 920 441 920 q 288 869 288 920 q 405 769 288 817 q 576 666 522 721 q 629 545 629 611 q 607 450 629 490 q 529 370 585 409 q 614 204 614 305 q 535 43 614 103 q 318 -17 456 -17 q 79 41 180 -17 l 79 207 q 205 155 137 176 q 319 134 274 134 m 269 566 q 298 505 269 532 q 404 437 326 478 q 432 509 432 469 q 404 578 432 549 q 309 635 375 607 q 269 566 269 614 z "},"¨":{"ha":836,"x_min":151,"x_max":710,"o":"m 182 1037 q 198 1051 182 1037 q 267 1065 213 1065 q 352 1037 320 1065 q 383 959 383 1008 q 352 881 383 910 q 267 852 320 852 q 182 880 213 852 q 151 958 151 908 q 182 1037 151 1008 m 476 959 q 476 984 476 959 q 507 1037 476 1009 q 592 1065 538 1065 q 678 1036 646 1065 q 710 959 710 1007 q 678 881 710 910 q 592 852 646 852 q 507 881 538 852 q 476 959 476 909 z "},"©":{"ha":1145,"x_min":62,"x_max":1082,"o":"m 130 750 q 317 938 199 869 q 571 1006 436 1006 q 824 939 707 1006 q 1012 754 942 873 q 1082 496 1082 635 q 1014 240 1082 357 q 828 55 945 123 q 571 -14 711 -14 q 313 56 432 -14 q 129 243 195 126 q 62 496 62 361 q 130 750 62 631 m 774 840 q 727 867 774 840 q 572 895 680 895 q 372 841 465 895 q 227 695 281 789 q 174 495 174 602 q 228 295 174 388 q 374 150 281 202 q 573 97 467 97 q 772 150 680 97 q 918 296 864 203 q 971 495 971 388 q 919 694 971 602 q 774 840 867 785 m 596 178 q 373 262 452 178 q 294 495 294 347 q 371 728 294 644 q 589 812 448 812 q 807 760 701 812 l 745 621 q 602 658 673 658 q 515 616 546 658 q 485 492 485 574 q 514 371 485 410 q 606 332 543 332 q 781 378 699 332 l 781 221 q 596 178 696 178 z "},"«":{"ha":946,"x_min":50,"x_max":895,"o":"m 504 625 l 319 390 l 504 154 l 314 54 l 50 380 l 50 399 l 314 726 l 504 625 m 895 625 l 708 390 l 895 154 l 703 54 l 440 380 l 440 399 l 703 726 l 895 625 z "},"¬":{"ha":786,"x_min":49,"x_max":736,"o":"m 736 161 l 553 161 l 553 399 l 49 399 l 49 581 l 736 581 l 736 161 z "},"­":{"ha":441,"x_min":29,"x_max":412,"o":"m 412 267 l 29 267 l 29 478 l 412 478 l 412 267 z "},"®":{"ha":1145,"x_min":62,"x_max":1082,"o":"m 130 750 q 317 938 199 869 q 571 1006 436 1006 q 824 939 707 1006 q 1012 754 942 873 q 1082 496 1082 635 q 1014 240 1082 357 q 828 55 945 123 q 571 -14 711 -14 q 313 56 432 -14 q 129 243 195 126 q 62 496 62 361 q 130 750 62 631 m 774 840 q 727 867 774 840 q 572 895 680 895 q 372 841 465 895 q 227 695 281 789 q 174 495 174 602 q 228 295 174 388 q 374 150 281 202 q 573 97 467 97 q 772 150 680 97 q 918 296 864 203 q 971 495 971 388 q 919 694 971 602 q 774 840 867 785 m 343 806 l 541 806 q 817 623 817 806 q 794 523 817 563 q 721 458 771 482 l 852 212 l 656 212 l 557 429 l 533 429 l 533 212 l 343 212 l 343 806 m 533 673 l 533 549 l 541 549 q 625 615 625 549 q 607 660 625 647 q 542 673 588 673 l 533 673 z "},"¯":{"ha":694,"x_min":-4,"x_max":699,"o":"m 699 1055 l -4 1055 l -4 1222 l 699 1222 l 699 1055 z "},"°":{"ha":586,"x_min":43,"x_max":543,"o":"m 298 1006 q 419 971 361 1006 q 510 880 477 937 q 543 763 543 823 q 543 756 543 759 q 543 751 543 753 q 510 632 543 689 q 420 542 477 576 q 298 509 362 509 q 293 509 296 509 q 288 509 290 509 q 168 542 225 509 q 76 631 110 575 q 43 748 43 687 q 43 755 43 752 q 43 763 43 759 q 76 880 43 823 q 167 971 109 937 q 288 1006 225 1006 q 293 1006 290 1006 q 298 1006 296 1006 m 382 756 q 382 773 382 756 q 356 818 382 790 q 293 846 330 846 q 230 818 255 846 q 204 756 204 791 q 230 695 204 722 q 293 669 256 669 q 355 696 330 669 q 382 756 382 722 z "},"±":{"ha":786,"x_min":49,"x_max":736,"o":"m 484 646 l 736 646 l 736 464 l 484 464 l 484 220 l 301 220 l 301 464 l 49 464 l 49 646 l 301 646 l 301 895 l 484 895 l 484 646 m 736 0 l 49 0 l 49 182 l 736 182 l 736 0 z "},"²":{"ha":554,"x_min":41,"x_max":509,"o":"m 41 916 q 155 986 96 964 q 301 1007 214 1007 q 441 964 389 1007 q 494 846 494 922 q 458 729 494 787 q 408 667 441 703 q 273 550 371 631 l 509 550 l 509 397 l 52 397 l 52 538 l 197 682 q 277 770 256 741 q 298 823 298 800 q 254 863 298 863 q 138 803 199 863 l 41 916 z "},"³":{"ha":554,"x_min":43,"x_max":511,"o":"m 275 1004 q 433 965 375 1004 q 492 859 492 926 q 466 768 492 804 q 382 710 440 731 l 382 704 q 479 652 448 688 q 511 558 511 616 q 445 431 511 477 q 255 386 378 386 q 47 433 132 386 l 47 591 q 249 536 127 536 q 328 582 328 536 q 306 620 328 609 q 236 631 285 631 l 165 631 l 165 762 l 220 762 q 291 775 269 762 q 314 815 314 787 q 299 848 314 834 q 252 861 283 861 q 122 811 189 861 l 43 926 q 275 1004 143 1004 z "},"´":{"ha":831,"x_min":179,"x_max":648,"o":"m 648 1064 l 648 1050 q 505 943 602 1013 q 355 842 407 874 l 179 842 l 179 861 q 311 1005 283 973 q 358 1064 338 1037 l 648 1064 z "},"¶":{"ha":893,"x_min":69,"x_max":804,"o":"m 804 -176 l 674 -176 l 674 900 l 568 900 l 568 -176 l 439 -176 l 439 379 q 354 367 402 367 q 139 451 208 367 q 69 709 69 535 q 143 969 69 882 q 375 1055 217 1055 l 804 1055 l 804 -176 z "},"·":{"ha":401,"x_min":58,"x_max":342,"o":"m 58 491 q 58 522 58 491 q 95 587 58 553 q 201 621 132 621 q 306 587 270 621 q 342 491 342 553 q 305 394 342 429 q 201 359 268 359 q 97 394 135 359 q 58 491 58 429 z "},"¸":{"ha":260,"x_min":-61,"x_max":269,"o":"m 269 -171 q 218 -290 269 -245 q 80 -334 168 -334 q -61 -314 -8 -334 l -61 -175 q 39 -193 -5 -193 q 74 -161 74 -193 q 47 -122 74 -140 q -26 -94 20 -104 l 22 0 l 160 0 l 154 -20 q 243 -81 217 -45 q 269 -171 269 -117 z "},"¹":{"ha":554,"x_min":39,"x_max":418,"o":"m 418 397 l 227 397 l 227 639 q 229 720 227 663 q 233 786 232 777 q 211 756 228 774 q 138 690 193 738 l 39 806 l 269 991 l 418 991 l 418 397 z "},"»":{"ha":946,"x_min":52,"x_max":896,"o":"m 505 399 l 505 380 l 243 54 l 52 154 l 236 390 l 52 625 l 243 726 l 505 399 m 896 399 l 896 380 l 633 54 l 440 154 l 627 390 l 440 625 l 633 726 l 896 399 z "},"¼":{"ha":1301,"x_min":-8,"x_max":1219,"o":"m 371 397 l 180 397 l 180 639 q 182 720 180 663 q 186 786 185 777 q 164 756 181 774 q 91 690 146 738 l -8 806 l 222 991 l 371 991 l 371 397 m 446 0 l 242 0 l 753 991 l 958 991 l 446 0 m 1135 231 l 1219 231 l 1219 95 l 1135 95 l 1135 0 l 948 0 l 948 95 l 697 95 l 697 222 l 935 599 l 1135 599 l 1135 231 m 948 231 l 948 344 q 953 435 948 393 q 911 345 925 366 l 842 231 l 948 231 z "},"½":{"ha":1303,"x_min":-8,"x_max":1240,"o":"m 371 397 l 180 397 l 180 639 q 182 720 180 663 q 186 786 185 777 q 164 756 181 774 q 91 690 146 738 l -8 806 l 222 991 l 371 991 l 371 397 m 463 0 l 258 0 l 769 991 l 974 991 l 463 0 m 773 519 q 886 589 827 568 q 1033 610 945 610 q 1173 568 1120 610 q 1226 449 1226 525 q 1139 271 1226 359 q 1005 153 1106 237 l 1240 153 l 1240 0 l 783 0 l 783 141 l 929 286 q 1009 374 987 344 q 1030 427 1030 404 q 986 466 1030 466 q 869 406 931 466 l 773 519 z "},"¾":{"ha":1303,"x_min":56,"x_max":1268,"o":"m 289 1004 q 446 965 389 1004 q 505 859 505 926 q 479 768 505 804 q 395 710 454 731 l 395 704 q 493 652 461 688 q 525 558 525 616 q 458 431 525 477 q 269 386 392 386 q 61 433 145 386 l 61 591 q 262 536 140 536 q 341 582 341 536 q 320 620 341 609 q 250 631 298 631 l 179 631 l 179 762 l 233 762 q 305 775 282 762 q 328 815 328 787 q 312 848 328 834 q 265 861 297 861 q 136 811 203 861 l 56 926 q 289 1004 157 1004 m 519 0 l 315 0 l 826 991 l 1031 991 l 519 0 m 1183 231 l 1268 231 l 1268 95 l 1183 95 l 1183 0 l 997 0 l 997 95 l 746 95 l 746 222 l 983 599 l 1183 599 l 1183 231 m 997 231 l 997 344 q 1002 435 997 393 q 960 345 974 366 l 890 231 l 997 231 z "},"¿":{"ha":701,"x_min":25,"x_max":701,"o":"m 248 652 q 248 683 248 652 q 284 748 248 714 q 388 782 321 782 q 493 748 456 782 q 530 652 530 715 q 494 556 530 589 q 388 522 458 522 q 283 556 319 522 q 248 652 248 590 m 501 415 l 501 357 q 474 244 501 290 q 378 155 447 199 q 296 90 317 114 q 275 29 276 66 q 300 -16 275 1 q 368 -32 326 -32 q 607 40 469 -32 l 701 -144 q 349 -240 536 -240 q 112 -174 198 -240 q 25 6 25 -108 q 63 148 25 88 q 186 262 100 208 q 274 329 254 307 q 293 380 293 351 l 293 415 l 501 415 z "},"À":{"ha":1008,"x_min":0,"x_max":1008,"o":"m 270 1297 l 562 1297 q 699 1139 597 1249 l 739 1095 l 739 1075 l 563 1075 q 430 1165 516 1104 q 270 1283 344 1225 l 270 1297 m 715 0 l 666 186 l 345 186 l 294 0 l 0 0 l 323 996 l 681 996 l 1008 0 l 715 0 m 611 406 l 568 568 q 504 832 524 724 q 479 718 498 798 q 400 406 463 642 l 611 406 z "},"Á":{"ha":1008,"x_min":0,"x_max":1008,"o":"m 739 1297 l 739 1283 q 595 1177 693 1246 q 446 1075 498 1107 l 270 1075 l 270 1095 q 402 1238 374 1206 q 449 1297 429 1270 l 739 1297 m 715 0 l 666 186 l 345 186 l 294 0 l 0 0 l 323 996 l 681 996 l 1008 0 l 715 0 m 611 406 l 568 568 q 504 832 524 724 q 479 718 498 798 q 400 406 463 642 l 611 406 z "},"Â":{"ha":1008,"x_min":0,"x_max":1008,"o":"m 812 1075 l 640 1075 q 504 1177 583 1107 q 372 1075 420 1105 l 197 1075 l 197 1095 q 296 1199 244 1138 q 372 1297 349 1260 l 639 1297 q 812 1095 705 1202 l 812 1075 m 715 0 l 666 186 l 345 186 l 294 0 l 0 0 l 323 996 l 681 996 l 1008 0 l 715 0 m 611 406 l 568 568 q 504 832 524 724 q 479 718 498 798 q 400 406 463 642 l 611 406 z "},"Ã":{"ha":1008,"x_min":0,"x_max":1008,"o":"m 623 1074 q 501 1106 581 1074 q 390 1139 422 1139 q 341 1072 353 1139 l 219 1072 q 268 1247 227 1191 q 390 1304 309 1304 q 504 1272 425 1304 q 618 1239 583 1239 q 667 1305 654 1239 l 790 1305 q 740 1133 783 1192 q 623 1074 697 1074 m 715 0 l 666 186 l 345 186 l 294 0 l 0 0 l 323 996 l 681 996 l 1008 0 l 715 0 m 611 406 l 568 568 q 504 832 524 724 q 479 718 498 798 q 400 406 463 642 l 611 406 z "},"Ä":{"ha":1008,"x_min":0,"x_max":1008,"o":"m 256 1270 q 271 1284 256 1270 q 340 1299 287 1299 q 426 1270 394 1299 q 457 1192 457 1241 q 426 1115 457 1143 q 340 1086 394 1086 q 256 1114 287 1086 q 225 1192 225 1141 q 256 1270 225 1242 m 550 1192 q 550 1217 550 1192 q 581 1271 550 1242 q 666 1299 612 1299 q 752 1270 720 1299 q 784 1192 784 1240 q 752 1115 784 1143 q 666 1086 720 1086 q 581 1114 612 1086 q 550 1192 550 1142 m 715 0 l 666 186 l 345 186 l 294 0 l 0 0 l 323 996 l 681 996 l 1008 0 l 715 0 m 611 406 l 568 568 q 504 832 524 724 q 479 718 498 798 q 400 406 463 642 l 611 406 z "},"Å":{"ha":1008,"x_min":0,"x_max":1008,"o":"m 326 1067 q 375 1192 326 1145 q 504 1239 423 1239 q 637 1191 585 1239 q 690 1068 690 1143 q 675 996 690 1029 l 681 996 l 1008 0 l 715 0 l 666 186 l 345 186 l 294 0 l 0 0 l 323 996 l 339 996 q 326 1067 326 1029 m 546 1108 q 538 1116 546 1108 q 505 1124 530 1124 q 465 1108 481 1124 q 448 1067 448 1093 q 463 1025 448 1041 q 504 1010 477 1010 q 546 1026 530 1010 q 562 1067 562 1042 q 546 1108 562 1093 m 611 406 l 568 568 q 504 832 524 724 q 479 718 498 798 q 400 406 463 642 l 611 406 z "},"Æ":{"ha":1314,"x_min":-7,"x_max":1247,"o":"m 1247 777 l 926 777 l 926 621 l 1223 621 l 1223 406 l 926 406 l 926 218 l 1247 218 l 1247 0 l 657 0 l 657 186 l 361 186 l 293 0 l -7 0 l 419 991 l 1247 991 l 1247 777 m 657 408 l 657 765 l 582 765 l 443 408 l 657 408 z "},"Ç":{"ha":901,"x_min":71,"x_max":859,"o":"m 549 786 q 400 708 454 786 q 346 492 346 629 q 564 205 346 205 q 815 268 665 205 l 815 41 q 534 -14 691 -14 q 503 -13 513 -14 l 501 -20 q 590 -81 564 -45 q 616 -171 616 -117 q 566 -290 616 -245 q 427 -334 515 -334 q 286 -314 339 -334 l 286 -175 q 386 -193 342 -193 q 421 -161 421 -193 q 394 -122 421 -140 q 321 -94 367 -104 l 370 0 l 400 0 q 190 117 271 28 q 71 493 71 248 q 71 503 71 498 q 200 867 71 728 q 543 1006 329 1006 q 551 1006 547 1006 q 859 936 713 1006 l 777 725 q 660 770 713 755 q 549 786 607 786 z "},"È":{"ha":762,"x_min":107,"x_max":696,"o":"m 146 1297 l 438 1297 q 576 1139 474 1249 l 616 1095 l 616 1075 l 439 1075 q 307 1165 393 1104 q 146 1283 220 1225 l 146 1297 m 375 777 l 375 621 l 671 621 l 671 406 l 375 406 l 375 218 l 696 218 l 696 0 l 107 0 l 107 991 l 696 991 l 696 777 l 375 777 z "},"É":{"ha":762,"x_min":107,"x_max":696,"o":"m 616 1297 l 616 1283 q 472 1177 570 1246 q 323 1075 374 1107 l 146 1075 l 146 1095 q 278 1238 251 1206 q 326 1297 306 1270 l 616 1297 m 375 777 l 375 621 l 671 621 l 671 406 l 375 406 l 375 218 l 696 218 l 696 0 l 107 0 l 107 991 l 696 991 l 696 777 l 375 777 z "},"Ê":{"ha":762,"x_min":73,"x_max":696,"o":"m 688 1075 l 516 1075 q 380 1177 459 1107 q 248 1075 296 1105 l 73 1075 l 73 1095 q 172 1199 120 1138 q 248 1297 224 1260 l 515 1297 q 688 1095 581 1202 l 688 1075 m 375 777 l 375 621 l 671 621 l 671 406 l 375 406 l 375 218 l 696 218 l 696 0 l 107 0 l 107 991 l 696 991 l 696 777 l 375 777 z "},"Ë":{"ha":762,"x_min":102,"x_max":696,"o":"m 133 1270 q 148 1284 133 1270 q 217 1299 163 1299 q 302 1270 271 1299 q 334 1192 334 1241 q 302 1115 334 1143 q 217 1086 271 1086 q 133 1114 163 1086 q 102 1192 102 1141 q 133 1270 102 1242 m 427 1192 q 427 1217 427 1192 q 457 1271 427 1242 q 543 1299 488 1299 q 629 1270 597 1299 q 661 1192 661 1240 q 629 1115 661 1143 q 543 1086 597 1086 q 457 1114 488 1086 q 427 1192 427 1142 m 375 777 l 375 621 l 671 621 l 671 406 l 375 406 l 375 218 l 696 218 l 696 0 l 107 0 l 107 991 l 696 991 l 696 777 l 375 777 z "},"Ì":{"ha":484,"x_min":7,"x_max":477,"o":"m 7 1297 l 299 1297 q 437 1139 335 1249 l 477 1095 l 477 1075 l 300 1075 q 168 1165 254 1104 q 7 1283 81 1225 l 7 1297 m 107 0 l 107 991 l 376 991 l 376 0 l 107 0 z "},"Í":{"ha":484,"x_min":7,"x_max":477,"o":"m 477 1297 l 477 1283 q 333 1177 431 1246 q 184 1075 235 1107 l 7 1075 l 7 1095 q 140 1238 113 1206 q 186 1297 167 1270 l 477 1297 m 107 0 l 107 991 l 376 991 l 376 0 l 107 0 z "},"Î":{"ha":484,"x_min":-66,"x_max":549,"o":"m 549 1075 l 377 1075 q 241 1177 320 1107 q 109 1075 157 1105 l -66 1075 l -66 1095 q 33 1199 -19 1138 q 109 1297 85 1260 l 376 1297 q 549 1095 441 1202 l 549 1075 m 107 0 l 107 991 l 376 991 l 376 0 l 107 0 z "},"Ï":{"ha":484,"x_min":-37,"x_max":522,"o":"m -6 1270 q 9 1284 -6 1270 q 78 1299 24 1299 q 163 1270 132 1299 q 195 1192 195 1241 q 163 1115 195 1143 q 78 1086 132 1086 q -6 1114 24 1086 q -37 1192 -37 1141 q -6 1270 -37 1242 m 288 1192 q 288 1217 288 1192 q 318 1271 288 1242 q 404 1299 349 1299 q 490 1270 458 1299 q 522 1192 522 1240 q 490 1115 522 1143 q 404 1086 458 1086 q 318 1114 349 1086 q 288 1192 288 1142 m 107 0 l 107 991 l 376 991 l 376 0 l 107 0 z "},"Ð":{"ha":1019,"x_min":21,"x_max":949,"o":"m 107 991 l 450 991 q 819 869 690 991 q 949 517 949 747 q 812 135 949 269 q 428 0 676 0 l 107 0 l 107 382 l 21 382 l 21 599 l 107 599 l 107 991 m 375 775 l 375 599 l 518 599 l 518 382 l 375 382 l 375 220 l 435 220 q 613 290 556 220 q 671 502 671 361 q 617 709 671 644 q 453 775 563 775 l 375 775 z "},"Ñ":{"ha":1158,"x_min":107,"x_max":1051,"o":"m 698 1074 q 576 1106 655 1074 q 465 1139 496 1139 q 416 1072 428 1139 l 294 1072 q 342 1247 301 1191 q 465 1304 384 1304 q 578 1272 498 1304 q 692 1239 658 1239 q 741 1305 729 1239 l 865 1305 q 814 1133 857 1192 q 698 1074 772 1074 m 345 447 l 345 0 l 107 0 l 107 991 l 457 991 l 818 302 l 822 302 q 812 543 812 458 l 812 991 l 1051 991 l 1051 0 l 700 0 l 338 699 l 332 699 q 345 447 345 538 z "},"Ò":{"ha":1107,"x_min":71,"x_max":1035,"o":"m 319 1297 l 610 1297 q 748 1139 646 1249 l 788 1095 l 788 1075 l 612 1075 q 479 1165 565 1104 q 319 1283 393 1225 l 319 1297 m 194 876 q 554 1007 318 1007 q 913 878 791 1007 q 1035 497 1035 748 q 912 117 1035 247 q 554 -14 789 -14 q 195 117 319 -14 q 71 497 71 248 q 194 876 71 745 m 554 787 q 353 498 353 787 q 553 210 353 210 q 704 279 654 210 q 753 497 753 349 q 703 716 753 645 q 554 787 654 787 z "},"Ó":{"ha":1107,"x_min":71,"x_max":1035,"o":"m 788 1297 l 788 1283 q 644 1177 742 1246 q 495 1075 547 1107 l 319 1075 l 319 1095 q 451 1238 423 1206 q 498 1297 478 1270 l 788 1297 m 194 876 q 554 1007 318 1007 q 913 878 791 1007 q 1035 497 1035 748 q 912 117 1035 247 q 554 -14 789 -14 q 195 117 319 -14 q 71 497 71 248 q 194 876 71 745 m 554 787 q 353 498 353 787 q 553 210 353 210 q 704 279 654 210 q 753 497 753 349 q 703 716 753 645 q 554 787 654 787 z "},"Ô":{"ha":1107,"x_min":71,"x_max":1035,"o":"m 861 1075 l 689 1075 q 553 1177 632 1107 q 421 1075 469 1105 l 246 1075 l 246 1095 q 345 1199 293 1138 q 421 1297 397 1260 l 688 1297 q 861 1095 753 1202 l 861 1075 m 194 876 q 554 1007 318 1007 q 913 878 791 1007 q 1035 497 1035 748 q 912 117 1035 247 q 554 -14 789 -14 q 195 117 319 -14 q 71 497 71 248 q 194 876 71 745 m 554 787 q 353 498 353 787 q 553 210 353 210 q 704 279 654 210 q 753 497 753 349 q 703 716 753 645 q 554 787 654 787 z "},"Õ":{"ha":1107,"x_min":71,"x_max":1035,"o":"m 672 1074 q 550 1106 629 1074 q 439 1139 471 1139 q 390 1072 402 1139 l 268 1072 q 317 1247 275 1191 q 439 1304 358 1304 q 553 1272 473 1304 q 667 1239 632 1239 q 715 1305 703 1239 l 839 1305 q 789 1133 831 1192 q 672 1074 746 1074 m 194 876 q 554 1007 318 1007 q 913 878 791 1007 q 1035 497 1035 748 q 912 117 1035 247 q 554 -14 789 -14 q 195 117 319 -14 q 71 497 71 248 q 194 876 71 745 m 554 787 q 353 498 353 787 q 553 210 353 210 q 704 279 654 210 q 753 497 753 349 q 703 716 753 645 q 554 787 654 787 z "},"Ö":{"ha":1107,"x_min":71,"x_max":1035,"o":"m 305 1270 q 320 1284 305 1270 q 389 1299 336 1299 q 474 1270 443 1299 q 506 1192 506 1241 q 474 1115 506 1143 q 389 1086 443 1086 q 305 1114 336 1086 q 274 1192 274 1141 q 305 1270 274 1242 m 599 1192 q 599 1217 599 1192 q 630 1271 599 1242 q 715 1299 661 1299 q 801 1270 769 1299 q 833 1192 833 1240 q 801 1115 833 1143 q 715 1086 769 1086 q 630 1114 661 1086 q 599 1192 599 1142 m 194 876 q 554 1007 318 1007 q 913 878 791 1007 q 1035 497 1035 748 q 912 117 1035 247 q 554 -14 789 -14 q 195 117 319 -14 q 71 497 71 248 q 194 876 71 745 m 554 787 q 353 498 353 787 q 553 210 353 210 q 704 279 654 210 q 753 497 753 349 q 703 716 753 645 q 554 787 654 787 z "},"×":{"ha":786,"x_min":82,"x_max":703,"o":"m 703 675 l 517 490 l 700 306 l 575 180 l 389 364 l 205 182 l 83 309 l 262 490 l 82 671 l 205 800 l 389 619 l 575 800 l 703 675 z "},"Ø":{"ha":1107,"x_min":71,"x_max":1035,"o":"m 903 888 q 1035 503 1035 760 q 912 117 1035 247 q 553 -14 789 -14 q 345 16 432 -14 l 288 -74 l 157 11 l 214 96 q 71 498 71 227 q 194 877 71 746 q 554 1007 318 1007 q 778 970 684 1007 l 829 1050 l 958 972 l 903 888 m 554 787 q 353 497 353 787 q 372 335 353 393 l 646 768 q 554 787 601 787 m 553 210 q 704 279 654 210 q 753 497 753 349 q 741 640 753 582 l 473 220 q 553 210 510 210 z "},"Ù":{"ha":1051,"x_min":102,"x_max":950,"o":"m 291 1297 l 583 1297 q 720 1139 618 1249 l 760 1095 l 760 1075 l 584 1075 q 451 1165 537 1104 q 291 1283 365 1225 l 291 1297 m 950 991 l 950 395 q 840 93 950 199 q 525 -14 730 -14 q 210 90 319 -14 q 102 389 102 194 l 102 991 l 371 991 l 371 410 q 410 258 371 306 q 528 210 448 210 q 645 257 608 210 q 682 411 682 304 l 682 991 l 950 991 z "},"Ú":{"ha":1051,"x_min":102,"x_max":950,"o":"m 760 1297 l 760 1283 q 616 1177 714 1246 q 467 1075 519 1107 l 291 1075 l 291 1095 q 423 1238 396 1206 q 470 1297 450 1270 l 760 1297 m 950 991 l 950 395 q 840 93 950 199 q 525 -14 730 -14 q 210 90 319 -14 q 102 389 102 194 l 102 991 l 371 991 l 371 410 q 410 258 371 306 q 528 210 448 210 q 645 257 608 210 q 682 411 682 304 l 682 991 l 950 991 z "},"Û":{"ha":1051,"x_min":102,"x_max":950,"o":"m 833 1075 l 661 1075 q 525 1177 604 1107 q 393 1075 441 1105 l 218 1075 l 218 1095 q 317 1199 265 1138 q 393 1297 370 1260 l 660 1297 q 833 1095 726 1202 l 833 1075 m 950 991 l 950 395 q 840 93 950 199 q 525 -14 730 -14 q 210 90 319 -14 q 102 389 102 194 l 102 991 l 371 991 l 371 410 q 410 258 371 306 q 528 210 448 210 q 645 257 608 210 q 682 411 682 304 l 682 991 l 950 991 z "},"Ü":{"ha":1051,"x_min":102,"x_max":950,"o":"m 277 1270 q 292 1284 277 1270 q 361 1299 308 1299 q 447 1270 415 1299 q 478 1192 478 1241 q 447 1115 478 1143 q 361 1086 415 1086 q 277 1114 308 1086 q 246 1192 246 1141 q 277 1270 246 1242 m 571 1192 q 571 1217 571 1192 q 602 1271 571 1242 q 687 1299 633 1299 q 773 1270 741 1299 q 805 1192 805 1240 q 773 1115 805 1143 q 687 1086 741 1086 q 602 1114 633 1086 q 571 1192 571 1142 m 950 991 l 950 395 q 840 93 950 199 q 525 -14 730 -14 q 210 90 319 -14 q 102 389 102 194 l 102 991 l 371 991 l 371 410 q 410 258 371 306 q 528 210 448 210 q 645 257 608 210 q 682 411 682 304 l 682 991 l 950 991 z "},"Ý":{"ha":922,"x_min":0,"x_max":922,"o":"m 696 1297 l 696 1283 q 552 1177 650 1246 q 403 1075 454 1107 l 227 1075 l 227 1095 q 358 1238 331 1206 q 406 1297 386 1270 l 696 1297 m 596 0 l 326 0 l 326 379 l 0 991 l 292 991 l 461 624 l 632 991 l 922 991 l 596 387 l 596 0 z "},"Þ":{"ha":871,"x_min":107,"x_max":827,"o":"m 375 847 l 450 847 q 731 766 636 847 q 827 532 827 684 q 729 275 827 366 q 450 184 631 184 l 375 184 l 375 0 l 107 0 l 107 991 l 375 991 l 375 847 m 375 631 l 375 403 l 424 403 q 520 437 485 403 q 555 530 555 471 q 444 631 555 631 l 375 631 z "},"ß":{"ha":1042,"x_min":92,"x_max":1002,"o":"m 92 0 l 92 746 q 204 977 92 892 q 506 1063 317 1063 q 802 995 695 1063 q 908 807 908 927 q 861 680 908 740 q 774 600 837 650 q 754 584 760 589 q 741 572 749 579 q 726 547 726 559 q 742 520 726 534 q 806 481 758 507 q 961 363 920 416 q 1002 227 1002 311 q 924 47 1002 109 q 694 -14 846 -14 q 543 -5 600 -14 q 443 26 485 4 l 443 224 q 533 186 477 203 q 631 170 589 170 q 699 185 673 170 q 725 228 725 201 q 715 259 725 246 q 679 290 706 273 q 599 335 651 307 q 480 419 513 380 q 447 513 447 458 q 542 661 447 595 q 615 723 593 696 q 636 782 636 749 q 602 837 636 814 q 507 860 568 860 q 357 718 357 860 l 357 0 l 92 0 z "},"à":{"ha":865,"x_min":50,"x_max":777,"o":"m 198 1064 l 490 1064 q 627 906 526 1016 l 667 861 l 667 842 l 491 842 q 358 931 444 871 q 198 1050 272 992 l 198 1064 m 467 782 q 695 708 614 782 q 777 504 777 634 l 777 0 l 593 0 l 542 102 l 536 102 q 427 11 481 35 q 283 -14 372 -14 q 113 52 175 -14 q 50 236 50 117 q 134 416 50 355 q 383 485 218 477 l 511 489 l 511 500 q 418 595 511 595 q 204 538 334 595 l 127 713 q 467 782 262 782 m 321 244 q 396 174 321 174 q 479 204 445 174 q 513 283 513 235 l 513 343 l 452 340 q 321 244 321 336 z "},"á":{"ha":865,"x_min":50,"x_max":777,"o":"m 667 1064 l 667 1050 q 524 943 621 1013 q 374 842 426 874 l 198 842 l 198 861 q 330 1005 302 973 q 377 1064 357 1037 l 667 1064 m 467 782 q 695 708 614 782 q 777 504 777 634 l 777 0 l 593 0 l 542 102 l 536 102 q 427 11 481 35 q 283 -14 372 -14 q 113 52 175 -14 q 50 236 50 117 q 134 416 50 355 q 383 485 218 477 l 511 489 l 511 500 q 418 595 511 595 q 204 538 334 595 l 127 713 q 467 782 262 782 m 321 244 q 396 174 321 174 q 479 204 445 174 q 513 283 513 235 l 513 343 l 452 340 q 321 244 321 336 z "},"â":{"ha":865,"x_min":50,"x_max":777,"o":"m 741 842 l 568 842 q 432 943 511 874 q 300 842 349 872 l 125 842 l 125 861 q 224 966 172 905 q 300 1064 277 1027 l 567 1064 q 741 861 633 969 l 741 842 m 467 782 q 695 708 614 782 q 777 504 777 634 l 777 0 l 593 0 l 542 102 l 536 102 q 427 11 481 35 q 283 -14 372 -14 q 113 52 175 -14 q 50 236 50 117 q 134 416 50 355 q 383 485 218 477 l 511 489 l 511 500 q 418 595 511 595 q 204 538 334 595 l 127 713 q 467 782 262 782 m 321 244 q 396 174 321 174 q 479 204 445 174 q 513 283 513 235 l 513 343 l 452 340 q 321 244 321 336 z "},"ã":{"ha":865,"x_min":50,"x_max":777,"o":"m 551 840 q 429 873 509 840 q 318 905 350 905 q 269 839 281 905 l 147 839 q 196 1014 155 958 q 318 1071 237 1071 q 432 1038 353 1071 q 546 1006 511 1006 q 595 1072 583 1006 l 718 1072 q 668 900 711 959 q 551 840 625 840 m 467 782 q 695 708 614 782 q 777 504 777 634 l 777 0 l 593 0 l 542 102 l 536 102 q 427 11 481 35 q 283 -14 372 -14 q 113 52 175 -14 q 50 236 50 117 q 134 416 50 355 q 383 485 218 477 l 511 489 l 511 500 q 418 595 511 595 q 204 538 334 595 l 127 713 q 467 782 262 782 m 321 244 q 396 174 321 174 q 479 204 445 174 q 513 283 513 235 l 513 343 l 452 340 q 321 244 321 336 z "},"ä":{"ha":865,"x_min":50,"x_max":777,"o":"m 184 1037 q 200 1051 184 1037 q 269 1065 215 1065 q 354 1037 322 1065 q 385 959 385 1008 q 354 881 385 910 q 269 852 322 852 q 184 880 215 852 q 153 958 153 908 q 184 1037 153 1008 m 478 959 q 478 984 478 959 q 509 1037 478 1009 q 594 1065 540 1065 q 680 1036 648 1065 q 712 959 712 1007 q 680 881 712 910 q 594 852 648 852 q 509 881 540 852 q 478 959 478 909 m 467 782 q 695 708 614 782 q 777 504 777 634 l 777 0 l 593 0 l 542 102 l 536 102 q 427 11 481 35 q 283 -14 372 -14 q 113 52 175 -14 q 50 236 50 117 q 134 416 50 355 q 383 485 218 477 l 511 489 l 511 500 q 418 595 511 595 q 204 538 334 595 l 127 713 q 467 782 262 782 m 321 244 q 396 174 321 174 q 479 204 445 174 q 513 283 513 235 l 513 343 l 452 340 q 321 244 321 336 z "},"å":{"ha":865,"x_min":50,"x_max":777,"o":"m 199 1010 q 199 1049 199 1010 q 247 1135 199 1088 q 377 1182 296 1182 q 510 1134 458 1182 q 562 1010 562 1086 q 511 887 562 935 q 377 839 459 839 q 247 885 296 839 q 199 1010 199 932 m 418 1051 q 410 1059 418 1051 q 378 1067 402 1067 q 337 1051 353 1067 q 321 1010 321 1036 q 335 968 321 984 q 376 953 350 953 q 418 969 402 953 q 435 1010 435 985 q 418 1051 435 1036 m 467 782 q 695 708 614 782 q 777 504 777 634 l 777 0 l 593 0 l 542 102 l 536 102 q 427 11 481 35 q 283 -14 372 -14 q 113 52 175 -14 q 50 236 50 117 q 134 416 50 355 q 383 485 218 477 l 511 489 l 511 500 q 418 595 511 595 q 204 538 334 595 l 127 713 q 467 782 262 782 m 321 244 q 396 174 321 174 q 479 204 445 174 q 513 283 513 235 l 513 343 l 452 340 q 321 244 321 336 z "},"æ":{"ha":1299,"x_min":50,"x_max":1240,"o":"m 440 782 q 668 718 577 782 q 911 782 759 782 q 1152 689 1063 782 q 1240 429 1240 596 l 1240 313 l 768 313 q 819 213 771 251 q 945 175 867 175 q 1192 233 1076 175 l 1192 43 q 1065 -1 1130 12 q 909 -14 1000 -14 q 618 115 720 -14 q 522 34 564 59 q 429 -3 481 8 q 294 -14 378 -14 q 117 56 184 -14 q 50 239 50 125 q 387 485 50 473 l 511 489 l 511 501 q 419 595 511 595 q 207 541 327 595 l 132 714 q 440 782 261 782 m 892 602 q 772 479 781 602 l 1003 479 q 970 568 1002 534 q 892 602 939 602 m 321 241 q 397 174 321 174 q 479 204 446 174 q 513 283 513 235 l 513 343 l 456 340 q 353 314 385 338 q 321 241 321 291 z "},"ç":{"ha":749,"x_min":58,"x_max":714,"o":"m 463 574 q 363 524 398 574 q 328 382 328 473 q 464 197 328 197 q 688 265 581 197 l 688 54 q 441 -14 585 -14 l 427 -14 l 425 -20 q 514 -81 488 -45 q 540 -171 540 -117 q 489 -290 540 -245 q 350 -334 438 -334 q 210 -314 262 -334 l 210 -175 q 309 -193 266 -193 q 345 -161 345 -193 q 317 -122 345 -140 q 244 -94 290 -104 l 293 0 l 317 0 q 124 127 189 31 q 58 380 58 224 q 163 676 58 572 q 463 782 269 782 q 714 724 595 782 l 636 528 q 542 563 581 551 q 463 574 503 574 z "},"è":{"ha":859,"x_min":58,"x_max":800,"o":"m 195 1064 l 486 1064 q 624 906 522 1016 l 664 861 l 664 842 l 488 842 q 355 931 441 871 q 195 1050 269 992 l 195 1064 m 463 -14 q 164 88 271 -14 q 58 383 58 191 q 157 677 58 574 q 433 782 255 782 q 705 691 610 782 q 800 431 800 600 l 800 313 l 326 313 q 373 212 329 248 q 492 175 418 175 q 623 188 566 175 q 750 233 680 201 l 750 43 q 620 -2 685 9 q 463 -14 555 -14 m 559 479 q 528 568 558 535 q 448 602 498 602 q 368 571 398 602 q 332 479 337 541 l 559 479 z "},"é":{"ha":859,"x_min":58,"x_max":800,"o":"m 664 1064 l 664 1050 q 520 943 618 1013 q 371 842 422 874 l 195 842 l 195 861 q 327 1005 300 973 q 374 1064 354 1037 l 664 1064 m 463 -14 q 164 88 271 -14 q 58 383 58 191 q 157 677 58 574 q 433 782 255 782 q 705 691 610 782 q 800 431 800 600 l 800 313 l 326 313 q 373 212 329 248 q 492 175 418 175 q 623 188 566 175 q 750 233 680 201 l 750 43 q 620 -2 685 9 q 463 -14 555 -14 m 559 479 q 528 568 558 535 q 448 602 498 602 q 368 571 398 602 q 332 479 337 541 l 559 479 z "},"ê":{"ha":859,"x_min":58,"x_max":800,"o":"m 737 842 l 565 842 q 429 943 508 874 q 297 842 345 872 l 122 842 l 122 861 q 221 966 169 905 q 297 1064 273 1027 l 564 1064 q 737 861 629 969 l 737 842 m 463 -14 q 164 88 271 -14 q 58 383 58 191 q 157 677 58 574 q 433 782 255 782 q 705 691 610 782 q 800 431 800 600 l 800 313 l 326 313 q 373 212 329 248 q 492 175 418 175 q 623 188 566 175 q 750 233 680 201 l 750 43 q 620 -2 685 9 q 463 -14 555 -14 m 559 479 q 528 568 558 535 q 448 602 498 602 q 368 571 398 602 q 332 479 337 541 l 559 479 z "},"ë":{"ha":859,"x_min":58,"x_max":800,"o":"m 181 1037 q 196 1051 181 1037 q 265 1065 212 1065 q 350 1037 319 1065 q 382 959 382 1008 q 350 881 382 910 q 265 852 319 852 q 181 880 212 852 q 150 958 150 908 q 181 1037 150 1008 m 475 959 q 475 984 475 959 q 506 1037 475 1009 q 591 1065 536 1065 q 677 1036 645 1065 q 709 959 709 1007 q 677 881 709 910 q 591 852 645 852 q 506 881 536 852 q 475 959 475 909 m 463 -14 q 164 88 271 -14 q 58 383 58 191 q 157 677 58 574 q 433 782 255 782 q 705 691 610 782 q 800 431 800 600 l 800 313 l 326 313 q 373 212 329 248 q 492 175 418 175 q 623 188 566 175 q 750 233 680 201 l 750 43 q 620 -2 685 9 q 463 -14 555 -14 m 559 479 q 528 568 558 535 q 448 602 498 602 q 368 571 398 602 q 332 479 337 541 l 559 479 z "},"ì":{"ha":452,"x_min":-88,"x_max":381,"o":"m -88 1064 l 203 1064 q 341 906 239 1016 l 381 861 l 381 842 l 205 842 q 61 940 151 876 q -88 1050 -30 1003 l -88 1064 m 358 0 l 93 0 l 93 768 l 358 768 l 358 0 z "},"í":{"ha":452,"x_min":73,"x_max":542,"o":"m 542 1064 l 542 1050 q 393 940 488 1007 q 249 842 298 873 l 73 842 l 73 861 q 205 1006 172 968 q 252 1064 233 1039 l 542 1064 m 358 0 l 93 0 l 93 768 l 358 768 l 358 0 z "},"î":{"ha":452,"x_min":-81,"x_max":534,"o":"m 534 842 l 361 842 q 225 943 304 874 q 94 842 142 872 l -81 842 l -81 861 q 16 964 -35 905 q 94 1064 67 1024 l 360 1064 q 534 861 426 969 l 534 842 m 358 0 l 93 0 l 93 768 l 358 768 l 358 0 z "},"ï":{"ha":452,"x_min":-41,"x_max":517,"o":"m -11 1037 q 5 1051 -11 1037 q 74 1065 20 1065 q 159 1037 127 1065 q 191 959 191 1008 q 159 881 191 910 q 74 852 127 852 q -11 880 20 852 q -41 958 -41 908 q -11 1037 -41 1008 m 283 959 q 283 984 283 959 q 314 1037 283 1009 q 400 1065 345 1065 q 486 1036 454 1065 q 517 958 517 1007 q 486 881 517 909 q 400 852 454 852 q 314 881 345 852 q 283 959 283 909 m 358 0 l 93 0 l 93 768 l 358 768 l 358 0 z "},"ð":{"ha":890,"x_min":60,"x_max":825,"o":"m 825 393 q 722 96 825 206 q 441 -14 618 -14 q 162 81 264 -14 q 60 337 60 175 q 148 593 60 499 q 385 688 236 688 q 550 631 514 688 l 555 633 q 458 774 509 724 l 335 693 l 256 818 l 353 880 l 252 943 l 325 1067 q 505 975 444 1017 l 647 1068 l 725 945 l 627 879 q 779 659 733 774 q 825 393 825 544 m 554 370 q 524 462 554 427 q 437 497 493 497 q 357 460 382 497 q 332 339 332 423 q 443 175 332 175 q 529 222 503 175 q 554 370 554 269 z "},"ñ":{"ha":930,"x_min":92,"x_max":842,"o":"m 584 840 q 462 873 541 840 q 351 905 382 905 q 302 839 314 905 l 180 839 q 229 1014 187 958 q 351 1071 270 1071 q 465 1038 385 1071 q 578 1006 544 1006 q 627 1072 615 1006 l 751 1072 q 701 900 743 959 q 584 840 658 840 m 572 782 q 771 707 701 782 q 842 500 842 633 l 842 0 l 576 0 l 576 419 q 554 535 576 497 q 484 574 532 574 q 386 520 416 574 q 357 336 357 466 l 357 0 l 92 0 l 92 768 l 292 768 l 325 673 l 340 673 q 572 782 408 782 z "},"ò":{"ha":885,"x_min":58,"x_max":825,"o":"m 208 1064 l 500 1064 q 637 906 536 1016 l 677 861 l 677 842 l 501 842 q 368 931 454 871 q 208 1050 282 992 l 208 1064 m 450 782 q 644 734 558 782 q 778 596 730 686 q 825 393 825 507 q 825 386 825 389 q 724 92 825 197 q 444 -14 622 -14 q 161 94 265 -14 q 58 388 58 203 q 159 677 58 574 q 444 782 260 782 q 450 782 447 782 m 555 385 q 555 436 555 385 q 529 536 555 487 q 442 585 503 585 q 355 536 382 585 q 328 386 328 487 q 355 234 328 284 q 442 183 382 183 q 529 233 503 183 q 555 385 555 283 z "},"ó":{"ha":885,"x_min":58,"x_max":825,"o":"m 677 1064 l 677 1050 q 534 943 631 1013 q 385 842 436 874 l 208 842 l 208 861 q 340 1005 313 973 q 387 1064 368 1037 l 677 1064 m 450 782 q 644 734 558 782 q 778 596 730 686 q 825 393 825 507 q 825 386 825 389 q 724 92 825 197 q 444 -14 622 -14 q 161 94 265 -14 q 58 388 58 203 q 159 677 58 574 q 444 782 260 782 q 450 782 447 782 m 555 385 q 555 436 555 385 q 529 536 555 487 q 442 585 503 585 q 355 536 382 585 q 328 386 328 487 q 355 234 328 284 q 442 183 382 183 q 529 233 503 183 q 555 385 555 283 z "},"ô":{"ha":885,"x_min":58,"x_max":825,"o":"m 751 842 l 578 842 q 442 943 522 874 q 311 842 359 872 l 136 842 l 136 861 q 235 966 182 905 q 311 1064 287 1027 l 577 1064 q 751 861 643 969 l 751 842 m 450 782 q 644 734 558 782 q 778 596 730 686 q 825 393 825 507 q 825 386 825 389 q 724 92 825 197 q 444 -14 622 -14 q 161 94 265 -14 q 58 388 58 203 q 159 677 58 574 q 444 782 260 782 q 450 782 447 782 m 555 385 q 555 436 555 385 q 529 536 555 487 q 442 585 503 585 q 355 536 382 585 q 328 386 328 487 q 355 234 328 284 q 442 183 382 183 q 529 233 503 183 q 555 385 555 283 z "},"õ":{"ha":885,"x_min":58,"x_max":825,"o":"m 562 840 q 439 873 519 840 q 328 905 360 905 q 279 839 292 905 l 157 839 q 206 1014 165 958 q 328 1071 248 1071 q 442 1038 362 1071 q 556 1006 522 1006 q 605 1072 593 1006 l 728 1072 q 678 900 721 959 q 562 840 635 840 m 450 782 q 644 734 558 782 q 778 596 730 686 q 825 393 825 507 q 825 386 825 389 q 724 92 825 197 q 444 -14 622 -14 q 161 94 265 -14 q 58 388 58 203 q 159 677 58 574 q 444 782 260 782 q 450 782 447 782 m 555 385 q 555 436 555 385 q 529 536 555 487 q 442 585 503 585 q 355 536 382 585 q 328 386 328 487 q 355 234 328 284 q 442 183 382 183 q 529 233 503 183 q 555 385 555 283 z "},"ö":{"ha":885,"x_min":58,"x_max":825,"o":"m 194 1037 q 210 1051 194 1037 q 279 1065 225 1065 q 364 1037 332 1065 q 395 959 395 1008 q 364 881 395 910 q 279 852 332 852 q 194 880 225 852 q 163 958 163 908 q 194 1037 163 1008 m 488 959 q 488 984 488 959 q 519 1037 488 1009 q 604 1065 550 1065 q 690 1036 659 1065 q 722 959 722 1007 q 690 881 722 910 q 604 852 659 852 q 519 881 550 852 q 488 959 488 909 m 450 782 q 644 734 558 782 q 778 596 730 686 q 825 393 825 507 q 825 386 825 389 q 724 92 825 197 q 444 -14 622 -14 q 161 94 265 -14 q 58 388 58 203 q 159 677 58 574 q 444 782 260 782 q 450 782 447 782 m 555 385 q 555 436 555 385 q 529 536 555 487 q 442 585 503 585 q 355 536 382 585 q 328 386 328 487 q 355 234 328 284 q 442 183 382 183 q 529 233 503 183 q 555 385 555 283 z "},"÷":{"ha":786,"x_min":49,"x_max":736,"o":"m 286 754 q 286 782 286 754 q 313 840 286 810 q 391 869 340 869 q 471 840 443 869 q 498 755 498 810 q 469 670 498 701 q 392 639 440 639 q 315 669 343 639 q 286 754 286 699 m 736 399 l 49 399 l 49 581 l 736 581 l 736 399 m 286 225 q 286 253 286 225 q 313 311 286 281 q 391 340 340 340 q 471 311 443 340 q 498 227 498 281 q 469 141 498 172 q 392 110 440 110 q 315 140 343 110 q 286 225 286 170 z "},"ø":{"ha":924,"x_min":58,"x_max":864,"o":"m 739 689 q 864 389 864 583 q 758 91 864 196 q 460 -14 652 -14 q 304 9 374 -14 l 248 -79 l 132 -7 l 186 77 q 58 386 58 184 q 165 678 58 574 q 464 782 271 782 q 623 755 548 782 l 671 831 l 785 760 l 739 689 m 461 599 q 348 548 384 599 q 313 386 313 498 q 321 286 313 319 l 517 590 q 461 599 493 599 m 463 170 q 575 219 541 170 q 610 386 610 269 q 603 475 610 446 l 411 175 q 463 170 431 170 z "},"ù":{"ha":930,"x_min":90,"x_max":839,"o":"m 231 1064 l 522 1064 q 660 906 558 1016 l 700 861 l 700 842 l 524 842 q 391 931 477 871 q 231 1050 304 992 l 231 1064 m 358 -14 q 160 60 231 -14 q 90 268 90 134 l 90 768 l 355 768 l 355 349 q 377 234 355 272 q 447 196 399 196 q 545 250 515 196 q 574 432 574 303 l 574 768 l 839 768 l 839 0 l 639 0 l 606 96 l 590 96 q 497 15 557 43 q 358 -14 438 -14 z "},"ú":{"ha":930,"x_min":90,"x_max":839,"o":"m 700 1064 l 700 1050 q 556 943 654 1013 q 407 842 458 874 l 231 842 l 231 861 q 362 1005 335 973 q 410 1064 390 1037 l 700 1064 m 358 -14 q 160 60 231 -14 q 90 268 90 134 l 90 768 l 355 768 l 355 349 q 377 234 355 272 q 447 196 399 196 q 545 250 515 196 q 574 432 574 303 l 574 768 l 839 768 l 839 0 l 639 0 l 606 96 l 590 96 q 497 15 557 43 q 358 -14 438 -14 z "},"û":{"ha":930,"x_min":90,"x_max":839,"o":"m 773 842 l 601 842 q 465 943 544 874 q 333 842 381 872 l 158 842 l 158 861 q 257 966 205 905 q 333 1064 309 1027 l 600 1064 q 773 861 665 969 l 773 842 m 358 -14 q 160 60 231 -14 q 90 268 90 134 l 90 768 l 355 768 l 355 349 q 377 234 355 272 q 447 196 399 196 q 545 250 515 196 q 574 432 574 303 l 574 768 l 839 768 l 839 0 l 639 0 l 606 96 l 590 96 q 497 15 557 43 q 358 -14 438 -14 z "},"ü":{"ha":930,"x_min":90,"x_max":839,"o":"m 217 1037 q 232 1051 217 1037 q 301 1065 248 1065 q 386 1037 355 1065 q 418 959 418 1008 q 386 881 418 910 q 301 852 355 852 q 217 880 248 852 q 186 958 186 908 q 217 1037 186 1008 m 511 959 q 511 984 511 959 q 542 1037 511 1009 q 627 1065 572 1065 q 713 1036 681 1065 q 745 959 745 1007 q 713 881 745 910 q 627 852 681 852 q 542 881 572 852 q 511 959 511 909 m 358 -14 q 160 60 231 -14 q 90 268 90 134 l 90 768 l 355 768 l 355 349 q 377 234 355 272 q 447 196 399 196 q 545 250 515 196 q 574 432 574 303 l 574 768 l 839 768 l 839 0 l 639 0 l 606 96 l 590 96 q 497 15 557 43 q 358 -14 438 -14 z "},"ý":{"ha":847,"x_min":-1,"x_max":847,"o":"m 659 1064 l 659 1050 q 515 943 612 1013 q 366 842 417 874 l 189 842 l 189 861 q 321 1005 294 973 q 368 1064 349 1037 l 659 1064 m 178 -334 q 69 -322 127 -334 l 69 -114 q 145 -122 105 -122 q 259 -70 220 -122 q 301 11 279 -45 l -1 768 l 278 768 l 408 328 q 421 244 418 290 l 427 244 q 443 326 431 290 l 576 768 l 847 768 l 543 -49 q 400 -269 485 -205 q 178 -334 315 -334 z "},"þ":{"ha":893,"x_min":92,"x_max":833,"o":"m 357 1055 l 357 822 q 345 669 357 750 l 357 669 q 440 752 386 722 q 561 782 494 782 q 760 677 687 782 q 833 387 833 572 q 758 94 833 202 q 551 -14 682 -14 q 357 74 434 -14 l 347 74 l 352 33 l 357 -29 l 357 -334 l 92 -334 l 92 1055 l 357 1055 m 357 387 q 383 244 357 289 q 465 200 410 200 q 542 246 519 200 q 564 388 564 292 q 541 528 564 483 q 462 574 517 574 q 383 533 407 574 q 357 407 359 493 l 357 387 z "},"ı":{"ha":452,"x_min":93,"x_max":358,"o":"m 358 0 l 93 0 l 93 768 l 358 768 l 358 0 z "},"Œ":{"ha":1329,"x_min":71,"x_max":1263,"o":"m 1263 0 l 690 0 q 616 -9 668 -5 q 525 -14 565 -14 q 190 122 309 -14 q 71 499 71 257 q 189 874 71 742 q 526 1007 308 1007 q 624 1002 572 1007 q 696 991 675 998 l 1263 991 l 1263 777 l 942 777 l 942 621 l 1238 621 l 1238 406 l 942 406 l 942 218 l 1263 218 l 1263 0 m 528 787 q 398 713 443 787 q 353 498 353 639 q 397 283 353 357 q 526 210 441 210 q 673 239 622 210 l 673 754 q 528 787 625 787 z "},"œ":{"ha":1361,"x_min":58,"x_max":1303,"o":"m 972 -14 q 713 79 812 -14 q 437 -14 610 -14 q 162 94 265 -14 q 58 388 58 202 q 160 678 58 574 q 444 782 261 782 q 699 696 598 782 q 964 782 803 782 q 1214 689 1125 782 q 1303 429 1303 596 l 1303 313 l 831 313 q 881 213 833 251 q 1007 175 929 175 q 1254 233 1139 175 l 1254 43 q 1129 -1 1193 12 q 972 -14 1065 -14 m 954 602 q 835 479 844 602 l 1065 479 q 1033 568 1064 534 q 954 602 1002 602 m 555 385 q 555 436 555 385 q 529 536 555 487 q 443 585 503 585 q 356 535 382 585 q 329 385 329 486 q 355 233 329 283 q 442 183 382 183 q 529 233 503 183 q 555 385 555 283 z "},"Š":{"ha":802,"x_min":61,"x_max":755,"o":"m 736 1293 l 736 1274 q 562 1071 624 1162 l 296 1071 q 121 1274 239 1157 l 121 1293 l 296 1293 q 427 1192 344 1263 q 564 1293 507 1261 l 736 1293 m 61 288 q 220 226 138 248 q 367 204 303 204 q 459 224 430 204 q 488 278 488 244 q 477 313 488 298 q 441 345 466 328 q 312 407 411 362 q 164 493 213 452 q 68 713 68 574 q 167 929 68 852 q 441 1006 267 1006 q 755 935 595 1006 l 673 728 q 433 791 535 791 q 358 774 383 791 q 334 727 334 756 q 363 676 334 699 q 523 594 392 654 q 705 469 654 534 q 755 306 755 403 q 708 137 755 209 q 573 26 661 66 q 376 -14 484 -14 q 201 0 269 -14 q 61 49 134 14 l 61 288 z "},"š":{"ha":741,"x_min":66,"x_max":685,"o":"m 681 1064 l 681 1044 q 507 842 569 932 l 241 842 q 66 1044 184 928 l 66 1064 l 241 1064 q 372 962 289 1034 q 509 1064 452 1031 l 681 1064 m 349 179 q 435 218 435 179 q 411 255 435 239 q 271 317 384 272 q 123 414 166 359 q 81 555 81 469 q 164 723 81 663 q 390 782 247 782 q 679 717 533 782 l 607 546 q 494 587 553 570 q 399 603 435 603 q 334 571 334 603 q 357 538 334 551 q 488 481 380 523 q 607 416 567 448 q 666 341 648 385 q 685 236 685 298 q 601 50 685 113 q 359 -14 517 -14 q 209 -4 272 -14 q 82 29 146 5 l 82 241 q 218 197 144 214 q 349 179 292 179 z "},"Ÿ":{"ha":922,"x_min":0,"x_max":922,"o":"m 213 1270 q 228 1284 213 1270 q 297 1299 243 1299 q 382 1270 351 1299 q 414 1192 414 1241 q 382 1115 414 1143 q 297 1086 351 1086 q 213 1114 243 1086 q 182 1192 182 1141 q 213 1270 182 1242 m 507 1192 q 507 1217 507 1192 q 537 1271 507 1242 q 623 1299 568 1299 q 709 1270 677 1299 q 741 1192 741 1240 q 709 1115 741 1143 q 623 1086 677 1086 q 537 1114 568 1086 q 507 1192 507 1142 m 596 0 l 326 0 l 326 379 l 0 991 l 292 991 l 461 624 l 632 991 l 922 991 l 596 387 l 596 0 z "},"Ž":{"ha":848,"x_min":41,"x_max":814,"o":"m 740 1293 l 740 1274 q 566 1071 628 1162 l 300 1071 q 125 1274 243 1157 l 125 1293 l 300 1293 q 431 1192 348 1263 q 568 1293 511 1261 l 740 1293 m 814 216 l 814 0 l 41 0 l 41 165 l 471 775 l 52 775 l 52 991 l 803 991 l 803 827 l 374 216 l 814 216 z "},"ž":{"ha":704,"x_min":33,"x_max":669,"o":"m 667 1064 l 667 1044 q 494 842 555 932 l 227 842 q 52 1044 171 928 l 52 1064 l 227 1064 q 359 962 275 1034 q 495 1064 438 1031 l 667 1064 m 669 203 l 669 0 l 33 0 l 33 151 l 351 566 l 52 566 l 52 768 l 654 768 l 654 604 l 350 203 l 669 203 z "},"ƒ":{"ha":771,"x_min":94,"x_max":713,"o":"m 239 790 q 298 999 239 935 q 492 1063 357 1063 q 713 1026 604 1063 l 661 851 q 570 868 609 868 q 514 846 530 868 q 498 771 498 823 l 498 768 l 671 768 l 671 570 l 498 570 l 498 -57 q 431 -262 498 -191 q 240 -334 364 -334 q 169 -328 214 -334 q 94 -314 123 -323 l 94 -110 q 170 -122 136 -122 q 233 -25 233 -122 l 233 570 l 132 570 l 132 700 l 239 765 l 239 790 z "},"ˆ":{"ha":839,"x_min":111,"x_max":726,"o":"m 726 842 l 554 842 q 418 943 497 874 q 286 842 334 872 l 111 842 l 111 861 q 210 966 158 905 q 286 1064 262 1027 l 553 1064 q 726 861 618 969 l 726 842 z "},"ˇ":{"ha":839,"x_min":111,"x_max":726,"o":"m 726 1064 l 726 1044 q 553 842 614 932 l 286 842 q 111 1044 230 928 l 111 1064 l 286 1064 q 418 962 334 1034 q 554 1064 497 1031 l 726 1064 z "},"˘":{"ha":831,"x_min":142,"x_max":690,"o":"m 690 1093 q 610 909 684 977 q 412 842 536 842 q 217 906 287 842 q 142 1093 148 970 l 285 1093 q 324 1022 298 1040 q 409 1004 349 1004 q 499 1025 469 1004 q 542 1093 529 1046 l 690 1093 z "},"˙":{"ha":452,"x_min":86,"x_max":368,"o":"m 86 960 q 120 1049 86 1020 q 226 1078 153 1078 q 334 1048 299 1078 q 368 960 368 1019 q 227 843 368 843 q 86 960 86 843 z "},"˚":{"ha":760,"x_min":199,"x_max":562,"o":"m 199 1010 q 199 1049 199 1010 q 247 1135 199 1088 q 377 1182 296 1182 q 510 1134 458 1182 q 562 1010 562 1086 q 511 887 562 935 q 377 839 459 839 q 247 885 296 839 q 199 1010 199 932 m 418 1051 q 410 1059 418 1051 q 378 1067 402 1067 q 337 1051 353 1067 q 321 1010 321 1036 q 335 968 321 984 q 376 953 350 953 q 418 969 402 953 q 435 1010 435 985 q 418 1051 435 1036 z "},"˛":{"ha":294,"x_min":-4,"x_max":301,"o":"m 168 -135 q 219 -180 168 -180 q 301 -165 269 -180 l 301 -315 q 183 -334 245 -334 q 48 -290 100 -334 q -4 -176 -4 -246 q 24 -86 -4 -129 q 114 0 52 -44 l 258 0 q 187 -79 205 -49 q 168 -135 168 -109 z "},"˜":{"ha":831,"x_min":119,"x_max":690,"o":"m 524 840 q 401 873 481 840 q 290 905 322 905 q 241 839 254 905 l 119 839 q 168 1014 127 958 q 290 1071 210 1071 q 404 1038 324 1071 q 518 1006 484 1006 q 567 1072 555 1006 l 690 1072 q 640 900 683 959 q 524 840 597 840 z "},"˝":{"ha":812,"x_min":53,"x_max":760,"o":"m 444 1064 l 444 1050 q 358 966 428 1023 q 191 842 289 909 l 53 842 l 53 861 l 86 907 q 193 1064 164 1013 l 444 1064 m 760 1064 l 760 1050 q 667 961 743 1022 q 504 842 591 900 l 367 842 l 367 861 l 400 907 q 507 1064 478 1011 l 760 1064 z "},"μ":{"ha":933,"x_min":92,"x_max":842,"o":"m 842 0 l 643 0 l 607 103 l 596 103 q 536 16 574 45 q 456 -14 498 -14 q 391 0 414 -14 q 349 43 368 13 q 357 -117 357 -18 l 357 -334 l 92 -334 l 92 768 l 357 768 l 357 351 q 380 234 357 272 q 456 196 404 196 q 547 252 519 196 q 575 432 575 308 l 575 768 l 842 768 l 842 0 z "},"ְ":{"ha":0,"x_min":364,"x_max":491,"o":"m 364 -127 q 364 -114 364 -127 q 381 -84 364 -100 q 428 -68 398 -68 q 474 -84 457 -68 q 491 -127 491 -100 q 474 -170 491 -155 q 428 -186 457 -186 q 381 -170 398 -186 q 364 -127 364 -155 m 364 -291 q 364 -277 364 -291 q 381 -248 364 -264 q 428 -232 398 -232 q 474 -248 457 -232 q 491 -291 491 -264 q 474 -333 491 -317 q 428 -349 457 -349 q 381 -334 398 -349 q 364 -291 364 -318 z "},"ֱ":{"ha":0,"x_min":193,"x_max":701,"o":"m 210 -95 q 219 -87 210 -95 q 256 -79 227 -79 q 303 -95 286 -79 q 320 -138 320 -111 q 303 -180 320 -165 q 256 -196 286 -196 q 210 -180 227 -196 q 193 -138 193 -165 q 210 -95 193 -111 m 394 -138 q 394 -124 394 -138 q 411 -94 394 -110 q 457 -79 428 -79 q 505 -95 487 -79 q 522 -138 522 -111 q 505 -180 522 -165 q 457 -196 487 -196 q 411 -181 427 -196 q 394 -138 394 -165 m 574 -138 q 574 -124 574 -138 q 591 -95 574 -111 q 638 -79 608 -79 q 684 -95 667 -79 q 701 -138 701 -111 q 684 -180 701 -165 q 638 -196 667 -196 q 591 -180 608 -196 q 574 -138 574 -165 m 313 -258 q 322 -250 313 -258 q 359 -242 330 -242 q 406 -258 389 -242 q 422 -301 422 -274 q 406 -343 422 -328 q 359 -359 389 -359 q 313 -344 330 -359 q 296 -301 296 -328 q 313 -258 296 -273 m 574 -301 q 574 -288 574 -301 q 591 -258 574 -274 q 638 -242 608 -242 q 684 -258 667 -242 q 701 -301 701 -274 q 684 -343 701 -328 q 638 -359 667 -359 q 591 -344 608 -359 q 574 -301 574 -328 z "},"ֲ":{"ha":0,"x_min":238,"x_max":671,"o":"m 562 -94 q 570 -86 562 -94 q 608 -79 578 -79 q 654 -95 637 -79 q 671 -138 671 -111 q 654 -180 671 -165 q 607 -196 637 -196 q 561 -180 578 -196 q 545 -137 545 -165 q 562 -94 545 -110 m 487 -176 l 238 -176 l 238 -96 l 487 -96 l 487 -176 m 562 -258 q 570 -250 562 -258 q 608 -242 578 -242 q 654 -258 637 -242 q 671 -301 671 -274 q 654 -343 671 -328 q 607 -359 637 -359 q 561 -344 578 -359 q 545 -301 545 -328 q 562 -258 545 -273 z "},"ֳ":{"ha":0,"x_min":238,"x_max":673,"o":"m 547 -138 q 547 -124 547 -138 q 564 -95 547 -111 q 610 -79 581 -79 q 656 -95 640 -79 q 673 -138 673 -111 q 656 -180 673 -165 q 610 -196 640 -196 q 564 -180 581 -196 q 547 -138 547 -165 m 487 -176 l 400 -176 l 400 -313 l 325 -313 l 325 -176 l 238 -176 l 238 -96 l 487 -96 l 487 -176 m 547 -301 q 547 -288 547 -301 q 564 -258 547 -274 q 610 -242 581 -242 q 656 -258 640 -242 q 673 -301 673 -274 q 656 -343 673 -328 q 610 -359 640 -359 q 564 -344 581 -359 q 547 -301 547 -328 z "},"ִ":{"ha":0,"x_min":362,"x_max":490,"o":"m 362 -134 q 362 -120 362 -134 q 379 -91 362 -106 q 426 -75 396 -75 q 473 -92 455 -75 q 490 -134 490 -108 q 473 -177 490 -161 q 425 -193 455 -193 q 379 -177 395 -193 q 362 -134 362 -162 z "},"ֵ":{"ha":0,"x_min":262,"x_max":591,"o":"m 279 -78 q 288 -70 279 -78 q 326 -62 296 -62 q 372 -78 355 -62 q 389 -121 389 -94 q 372 -164 389 -148 q 325 -180 355 -180 q 279 -164 296 -180 q 262 -121 262 -149 q 279 -78 262 -94 m 463 -121 q 463 -107 463 -121 q 479 -78 463 -94 q 526 -62 496 -62 q 574 -79 556 -62 q 591 -121 591 -95 q 574 -164 591 -148 q 526 -180 556 -180 q 479 -164 496 -180 q 463 -121 463 -149 z "},"ֶ":{"ha":0,"x_min":262,"x_max":591,"o":"m 279 -94 q 288 -86 279 -94 q 326 -79 296 -79 q 372 -95 355 -79 q 389 -138 389 -111 q 372 -180 389 -165 q 325 -196 355 -196 q 279 -180 296 -196 q 262 -137 262 -165 q 279 -94 262 -110 m 463 -138 q 463 -124 463 -138 q 479 -94 463 -110 q 526 -79 496 -79 q 574 -95 556 -79 q 591 -138 591 -111 q 574 -180 591 -165 q 526 -196 556 -196 q 479 -181 496 -196 q 463 -138 463 -165 m 365 -301 q 365 -288 365 -301 q 382 -258 365 -274 q 428 -242 399 -242 q 475 -258 458 -242 q 492 -301 492 -274 q 475 -343 492 -328 q 428 -359 458 -359 q 382 -344 399 -359 q 365 -301 365 -328 z "},"ַ":{"ha":0,"x_min":293,"x_max":559,"o":"m 559 -159 l 293 -159 l 293 -80 l 559 -80 l 559 -159 z "},"ָ":{"ha":0,"x_min":297,"x_max":556,"o":"m 556 -173 l 464 -173 l 464 -310 l 389 -310 l 389 -173 l 297 -173 l 297 -94 l 556 -94 l 556 -173 z "},"ֹ":{"ha":0,"x_min":363,"x_max":491,"o":"m 363 1015 q 363 1028 363 1015 q 380 1058 363 1042 q 426 1074 397 1074 q 473 1057 456 1074 q 491 1015 491 1041 q 473 972 491 988 q 426 956 456 956 q 379 971 396 956 q 363 1015 363 987 z "},"ֺ":{"ha":0,"x_min":363,"x_max":491,"o":"m 363 1015 q 363 1028 363 1015 q 380 1058 363 1042 q 426 1074 397 1074 q 473 1057 456 1074 q 491 1015 491 1041 q 473 972 491 988 q 426 956 456 956 q 379 971 396 956 q 363 1015 363 987 z "},"ֻ":{"ha":0,"x_min":267,"x_max":644,"o":"m 284 -102 q 293 -94 284 -102 q 330 -86 301 -86 q 376 -102 359 -86 q 393 -145 393 -118 q 376 -188 393 -172 q 330 -203 359 -203 q 284 -188 300 -203 q 267 -145 267 -172 q 284 -102 267 -117 m 390 -264 q 390 -251 390 -264 q 407 -221 390 -237 q 453 -205 424 -205 q 500 -221 483 -205 q 517 -264 517 -237 q 500 -307 517 -291 q 453 -323 483 -323 q 407 -307 424 -323 q 390 -264 390 -292 m 515 -383 q 515 -369 515 -383 q 532 -340 515 -355 q 579 -324 549 -324 q 626 -340 608 -324 q 644 -383 644 -357 q 626 -426 644 -410 q 578 -441 608 -441 q 532 -426 549 -441 q 515 -383 515 -411 z "},"ּ":{"ha":0,"x_min":362,"x_max":490,"o":"m 362 445 q 362 459 362 445 q 379 488 362 473 q 426 504 396 504 q 473 488 455 504 q 490 445 490 471 q 473 402 490 418 q 425 387 455 387 q 379 402 395 387 q 362 445 362 417 z "},"ֽ":{"ha":852,"x_min":391,"x_max":460,"o":"m 460 -345 l 391 -345 l 391 -106 l 460 -106 l 460 -345 z "},"־":{"ha":441,"x_min":29,"x_max":412,"o":"m 412 666 l 29 666 l 29 878 l 412 878 l 412 666 z "},"ׁ":{"ha":0,"x_min":327,"x_max":455,"o":"m 327 1015 q 327 1028 327 1015 q 344 1058 327 1042 q 390 1074 361 1074 q 437 1057 420 1074 q 455 1015 455 1041 q 437 972 455 988 q 390 956 420 956 q 343 971 360 956 q 327 1015 327 987 z "},"ׂ":{"ha":0,"x_min":363,"x_max":491,"o":"m 363 1015 q 363 1028 363 1015 q 380 1058 363 1042 q 426 1074 397 1074 q 473 1057 456 1074 q 491 1015 491 1041 q 473 972 491 988 q 426 956 456 956 q 379 971 396 956 q 363 1015 363 987 z "},"ׇ":{"ha":0,"x_min":75,"x_max":353,"o":"m 353 -142 l 244 -142 l 244 -301 l 181 -301 l 181 -142 l 75 -142 l 75 -75 l 353 -75 l 353 -142 z "},"א":{"ha":935,"x_min":49,"x_max":886,"o":"m 853 878 l 853 559 q 848 486 853 517 q 827 419 843 455 q 692 305 797 345 q 886 0 821 100 l 592 0 l 354 396 q 341 321 341 376 l 341 0 l 79 0 l 79 319 q 84 392 79 360 q 106 460 90 424 q 243 574 138 534 q 49 878 157 709 l 342 878 l 517 581 l 579 484 q 590 557 590 507 l 590 878 l 853 878 z "},"ב":{"ha":811,"x_min":56,"x_max":792,"o":"m 325 892 q 519 869 448 892 q 632 806 599 845 q 684 704 671 761 q 696 569 696 648 l 696 203 l 792 203 l 792 0 l 56 0 l 56 203 l 433 203 l 433 557 q 300 688 433 688 q 98 677 216 688 l 56 673 l 56 874 q 325 892 138 892 z "},"ג":{"ha":667,"x_min":34,"x_max":576,"o":"m 250 34 q 238 25 250 34 q 191 1 227 16 q 120 -14 155 -14 q 34 0 84 -14 l 56 233 q 143 222 102 222 q 266 259 218 222 q 313 372 313 295 l 313 600 q 257 684 313 684 q 140 669 197 684 l 122 665 l 122 870 q 286 892 208 892 q 417 877 365 892 q 500 839 469 863 q 548 778 530 816 q 571 702 566 740 q 576 612 576 664 l 576 0 l 379 0 l 338 123 l 326 123 q 295 79 318 106 q 250 34 272 52 z "},"ד":{"ha":770,"x_min":16,"x_max":751,"o":"m 751 878 l 751 692 q 661 634 685 667 q 637 528 637 601 l 637 0 l 374 0 l 374 533 q 437 675 374 622 l 16 675 l 16 878 l 751 878 z "},"ה":{"ha":915,"x_min":92,"x_max":827,"o":"m 456 892 q 696 850 618 892 q 762 801 736 828 q 803 733 789 773 q 822 653 817 693 q 827 557 827 612 l 827 0 l 563 0 l 563 557 q 430 688 563 688 q 148 671 311 688 l 92 665 l 92 866 q 456 892 253 892 m 355 0 l 92 0 l 92 512 l 355 512 l 355 0 z "},"ו":{"ha":446,"x_min":92,"x_max":355,"o":"m 355 0 l 92 0 l 92 878 l 355 878 l 355 0 z "},"ז":{"ha":496,"x_min":62,"x_max":480,"o":"m 480 878 l 480 689 q 420 620 446 662 q 381 540 395 577 q 363 458 368 503 q 356 385 357 414 q 355 302 355 356 l 355 0 l 92 0 l 92 302 q 237 675 92 555 l 62 675 l 62 878 l 480 878 z "},"ח":{"ha":915,"x_min":92,"x_max":827,"o":"m 92 0 l 92 866 q 456 892 253 892 q 696 852 618 892 q 763 805 736 831 q 803 739 789 779 q 822 657 817 699 q 827 557 827 615 l 827 0 l 563 0 l 563 557 q 430 688 563 688 q 355 686 395 688 l 355 0 l 92 0 z "},"ט":{"ha":916,"x_min":88,"x_max":858,"o":"m 444 883 q 552 892 500 892 q 654 879 604 892 q 743 837 703 867 q 808 755 783 806 q 858 451 858 652 q 755 109 858 231 q 465 -13 653 -13 q 317 19 386 -13 q 197 109 248 50 q 117 255 146 167 q 88 451 88 344 l 88 878 l 352 878 l 352 451 q 471 197 352 197 q 563 257 532 197 q 593 449 593 317 q 567 632 593 581 q 476 684 541 684 l 444 680 l 444 883 z "},"י":{"ha":431,"x_min":86,"x_max":349,"o":"m 86 284 l 86 878 l 349 878 l 349 469 l 203 284 l 86 284 z "},"ך":{"ha":751,"x_min":16,"x_max":663,"o":"m 292 892 q 442 869 376 892 q 548 810 507 847 q 615 720 589 773 q 663 494 663 626 l 663 -334 l 400 -334 l 400 496 q 397 556 400 531 q 384 608 394 581 q 357 650 374 634 q 235 687 318 687 q 49 678 147 687 l 16 675 l 16 881 q 292 892 131 892 z "},"כ":{"ha":749,"x_min":45,"x_max":692,"o":"m 321 892 q 471 869 406 892 q 577 810 536 847 q 645 720 618 773 q 692 494 692 626 l 692 383 q 684 265 692 318 q 651 158 675 212 q 587 68 627 104 q 479 9 547 32 q 321 -14 412 -14 q 45 5 143 -14 l 45 210 q 296 198 150 198 q 399 247 370 198 q 429 383 429 296 l 429 496 q 426 556 429 531 q 413 608 423 581 q 387 650 404 634 q 264 687 347 687 q 77 678 176 687 l 45 675 l 45 881 q 321 892 160 892 z "},"ל":{"ha":767,"x_min":34,"x_max":739,"o":"m 297 878 l 739 878 l 739 718 l 624 326 l 625 327 l 551 0 l 292 0 l 368 336 l 469 675 l 34 675 l 34 1052 l 297 1052 l 297 878 z "},"ם":{"ha":915,"x_min":92,"x_max":827,"o":"m 92 0 l 92 866 q 454 891 253 891 q 741 824 656 891 q 827 599 827 757 l 827 0 l 92 0 m 563 203 l 563 607 q 529 670 563 652 q 430 688 496 688 l 355 685 l 355 203 l 563 203 z "},"מ":{"ha":966,"x_min":58,"x_max":878,"o":"m 302 878 q 332 789 326 838 l 342 789 q 380 822 353 802 q 434 856 408 842 q 502 881 460 869 q 599 892 543 892 q 706 872 655 892 q 790 818 758 852 q 842 732 823 784 q 878 494 878 641 l 878 0 l 454 0 l 454 203 l 610 203 l 610 494 q 603 598 610 566 q 583 646 595 631 q 501 683 557 683 q 455 674 477 683 q 418 651 433 665 q 374 602 385 622 l 368 593 l 317 0 l 58 0 l 109 555 q 114 645 114 604 q 71 878 114 760 l 302 878 z "},"ן":{"ha":420,"x_min":19,"x_max":328,"o":"m 328 557 l 328 -321 l 64 -321 l 64 557 q 53 721 64 641 q 31 840 42 802 l 19 878 l 283 878 q 296 836 288 863 q 316 724 303 808 q 328 557 328 640 z "},"נ":{"ha":614,"x_min":49,"x_max":526,"o":"m 87 881 q 225 892 142 892 q 359 876 309 892 q 441 834 410 861 q 492 770 473 808 q 518 690 511 731 q 526 599 526 649 l 526 275 q 518 142 526 211 q 503 37 510 73 l 495 0 l 49 0 l 49 203 l 254 203 q 262 275 262 236 l 262 599 q 247 659 262 634 q 197 684 232 684 q 105 677 153 684 l 87 675 l 87 881 z "},"ס":{"ha":887,"x_min":58,"x_max":829,"o":"m 67 876 q 443 892 259 892 q 727 773 626 892 q 829 440 829 654 q 726 106 829 226 q 441 -13 623 -13 q 158 105 258 -13 q 58 439 58 223 q 140 673 58 584 l 67 669 l 67 876 m 325 439 q 353 255 325 314 q 443 196 381 196 q 534 255 505 196 q 562 439 562 315 q 534 626 562 564 q 444 688 505 688 l 391 685 q 325 439 325 589 z "},"ע":{"ha":891,"x_min":34,"x_max":833,"o":"m 833 878 l 798 492 q 759 300 788 374 q 337 0 663 52 l 34 -47 l 34 161 l 245 193 l 59 878 l 321 878 l 428 497 l 472 277 q 536 479 523 336 l 571 878 l 833 878 z "},"ף":{"ha":888,"x_min":29,"x_max":800,"o":"m 29 585 q 53 702 29 646 q 114 793 77 758 q 203 850 152 828 q 414 892 298 892 q 639 833 550 892 q 703 776 672 811 q 754 694 733 741 q 800 439 800 593 l 800 -334 l 533 -334 l 533 439 q 515 619 533 578 q 461 675 495 664 q 412 682 441 682 q 358 673 382 682 q 323 652 334 664 q 304 625 311 641 q 295 578 295 603 q 304 533 295 554 q 329 501 314 512 q 378 477 353 484 l 434 466 l 392 279 l 326 281 q 114 353 193 284 q 29 585 29 427 z "},"פ":{"ha":887,"x_min":58,"x_max":829,"o":"m 58 575 q 82 702 58 646 q 143 793 106 758 q 233 850 181 828 q 444 892 327 892 q 669 833 579 892 q 732 776 701 811 q 783 694 762 741 q 829 439 829 593 q 808 248 829 330 q 752 117 787 166 q 667 38 718 68 q 562 -3 615 7 q 434 -14 509 -14 q 281 -9 358 -14 q 170 1 204 -4 l 134 6 l 134 205 q 444 190 289 190 q 538 252 512 190 q 557 329 554 290 q 561 388 560 368 q 562 439 562 408 q 561 491 562 471 q 558 539 560 511 q 551 586 555 568 q 538 624 547 604 q 517 655 529 644 q 450 682 488 682 q 388 673 412 682 q 352 652 363 664 q 334 625 340 641 q 324 578 324 603 q 334 533 324 554 q 358 501 343 512 q 408 477 382 484 l 463 466 l 421 277 l 355 281 q 58 575 58 300 z "},"ץ":{"ha":823,"x_min":0,"x_max":764,"o":"m 764 878 l 764 559 q 680 342 764 413 q 596 300 648 316 q 477 283 545 283 l 456 283 l 456 -334 l 193 -334 l 193 395 l 0 878 l 283 878 l 431 469 l 437 469 q 487 493 471 469 q 502 569 502 516 l 502 878 l 764 878 z "},"צ":{"ha":886,"x_min":31,"x_max":838,"o":"m 833 0 l 51 0 l 51 203 l 408 203 l 505 197 l 344 397 l 31 878 l 321 878 l 531 540 q 559 676 551 595 l 576 878 l 838 878 l 821 701 q 815 646 818 667 q 803 581 813 625 q 778 503 793 536 q 734 426 763 469 q 668 347 706 382 l 833 149 l 833 0 z "},"ק":{"ha":941,"x_min":92,"x_max":914,"o":"m 705 41 l 705 0 l 444 0 l 444 41 q 461 190 444 94 q 505 355 479 286 l 625 675 l 92 675 l 92 878 l 914 878 l 914 726 l 772 349 q 705 41 705 174 m 355 -334 l 92 -334 l 92 529 l 355 529 l 355 -334 z "},"ר":{"ha":764,"x_min":35,"x_max":675,"o":"m 35 878 q 278 892 173 892 q 444 882 384 892 q 544 850 504 871 q 611 801 585 828 q 651 733 637 774 q 670 653 665 693 q 675 557 675 612 l 675 0 l 412 0 l 412 557 q 279 688 412 688 q 35 673 178 688 l 35 878 z "},"ש":{"ha":1096,"x_min":58,"x_max":1047,"o":"m 517 0 l 132 0 l 58 878 l 314 878 l 348 470 q 367 475 356 470 q 386 488 378 479 q 401 516 393 497 q 411 562 409 536 l 438 878 l 692 878 l 665 566 q 646 466 661 511 q 611 393 631 422 q 564 342 591 364 q 513 310 537 321 q 460 292 488 299 q 374 283 419 283 l 363 283 l 372 203 l 548 203 q 689 270 633 203 q 758 484 745 336 l 791 878 l 1047 878 l 1011 477 q 968 275 1001 361 q 891 137 936 189 q 784 54 847 85 q 658 11 721 22 q 517 0 595 0 z "},"ת":{"ha":975,"x_min":34,"x_max":886,"o":"m 798 827 q 842 780 825 805 q 869 720 859 755 q 886 568 886 661 l 886 0 l 623 0 l 623 557 q 490 688 623 688 q 442 687 456 688 l 442 268 q 435 178 442 218 q 409 101 428 138 q 358 40 389 64 q 158 -13 290 -13 q 97 -6 128 -13 q 50 8 66 1 l 34 16 l 34 205 q 120 195 85 195 q 167 212 155 195 q 179 268 179 229 l 179 671 l 85 664 l 85 866 q 514 891 313 891 q 798 827 715 891 z "},"׳":{"ha":347,"x_min":25,"x_max":334,"o":"m 323 878 l 334 863 q 214 483 271 615 l 25 483 q 92 878 71 700 l 323 878 z "},"״":{"ha":693,"x_min":25,"x_max":679,"o":"m 323 878 l 334 863 q 214 483 271 615 l 25 483 q 92 878 71 700 l 323 878 m 669 878 l 679 863 q 559 483 616 614 l 371 483 q 437 878 417 700 l 669 878 z "},"–":{"ha":694,"x_min":50,"x_max":644,"o":"m 644 281 l 50 281 l 50 468 l 644 468 l 644 281 z "},"—":{"ha":1389,"x_min":50,"x_max":1336,"o":"m 1336 281 l 50 281 l 50 468 l 1336 468 l 1336 281 z "},"‘":{"ha":347,"x_min":14,"x_max":322,"o":"m 134 990 l 322 990 q 256 595 278 785 l 24 595 l 14 610 q 134 990 81 875 z "},"’":{"ha":347,"x_min":25,"x_max":334,"o":"m 323 990 l 334 975 q 214 595 271 727 l 25 595 q 92 990 71 812 l 323 990 z "},"‚":{"ha":429,"x_min":39,"x_max":347,"o":"m 338 203 l 347 187 q 228 -193 280 -75 l 39 -193 q 77 14 56 -111 q 106 203 99 139 l 338 203 z "},"“":{"ha":693,"x_min":14,"x_max":667,"o":"m 134 990 l 322 990 q 256 595 278 785 l 24 595 l 14 610 q 134 990 81 875 m 479 990 l 667 990 q 602 595 623 782 l 370 595 l 359 610 q 479 990 427 875 z "},"”":{"ha":693,"x_min":25,"x_max":679,"o":"m 323 990 l 334 975 q 214 595 271 727 l 25 595 q 92 990 71 812 l 323 990 m 669 990 l 679 975 q 559 595 616 726 l 371 595 q 437 990 417 812 l 669 990 z "},"„":{"ha":775,"x_min":39,"x_max":693,"o":"m 338 203 l 347 187 q 228 -193 280 -75 l 39 -193 q 77 14 56 -111 q 106 203 99 139 l 338 203 m 684 203 l 693 187 q 574 -193 626 -75 l 385 -193 q 452 203 435 52 l 684 203 z "},"†":{"ha":713,"x_min":75,"x_max":637,"o":"m 421 772 l 637 793 l 637 599 l 421 619 l 461 0 l 237 0 l 278 619 l 75 599 l 75 793 l 278 772 l 237 1055 l 461 1055 l 421 772 z "},"‡":{"ha":728,"x_min":75,"x_max":653,"o":"m 436 802 l 653 822 l 653 628 l 436 648 l 469 533 l 436 407 l 653 428 l 653 233 l 436 254 l 476 0 l 254 0 l 294 254 l 75 233 l 75 428 l 294 407 l 260 533 l 294 648 l 75 628 l 75 822 l 294 802 l 254 1055 l 476 1055 l 436 802 z "},"•":{"ha":545,"x_min":50,"x_max":494,"o":"m 50 507 q 50 566 50 507 q 107 688 50 625 q 272 751 165 751 q 436 687 378 751 q 494 507 494 623 q 435 327 494 391 q 271 262 376 262 q 108 326 166 262 q 50 507 50 389 z "},"…":{"ha":1204,"x_min":58,"x_max":1145,"o":"m 58 114 q 58 145 58 114 q 95 209 58 176 q 201 243 132 243 q 306 209 270 243 q 342 113 342 175 q 305 17 342 52 q 201 -17 268 -17 q 97 17 135 -17 q 58 114 58 52 m 460 114 q 460 145 460 114 q 497 209 460 176 q 603 243 534 243 q 707 209 671 243 q 743 113 743 175 q 706 17 743 52 q 603 -17 669 -17 q 498 17 536 -17 q 460 114 460 52 m 861 114 q 861 145 861 114 q 898 209 861 176 q 1004 243 935 243 q 1109 209 1073 243 q 1145 113 1145 175 q 1108 17 1145 52 q 1004 -17 1071 -17 q 900 17 938 -17 q 861 114 861 52 z "},"‰":{"ha":1870,"x_min":25,"x_max":1845,"o":"m 25 698 q 25 771 25 698 q 91 925 25 844 q 277 1006 157 1006 q 466 923 396 1006 q 536 693 536 840 q 469 465 536 547 q 281 383 402 383 q 93 467 161 383 q 25 698 25 551 m 481 0 l 279 0 l 829 991 l 1031 991 l 481 0 m 319 805 q 313 823 319 805 q 281 840 307 840 q 242 805 254 840 q 229 693 229 770 q 281 546 229 546 q 319 581 307 546 q 332 693 332 615 q 319 805 332 770 m 779 303 q 779 377 779 303 q 845 530 779 450 q 1031 611 911 611 q 1220 528 1150 611 q 1291 299 1291 445 q 1223 71 1291 153 q 1035 -11 1156 -11 q 847 73 915 -11 q 779 303 779 157 m 1333 304 q 1333 377 1333 304 q 1399 530 1333 450 q 1585 611 1466 611 q 1775 528 1705 611 q 1845 298 1845 445 q 1777 70 1845 151 q 1590 -11 1709 -11 q 1402 73 1471 -11 q 1333 304 1333 158 m 1035 446 q 996 410 1008 446 q 983 298 983 375 q 1035 151 983 151 q 1086 298 1086 151 q 1035 446 1086 446 m 1640 298 q 1640 372 1640 298 q 1589 446 1640 446 q 1537 298 1537 446 q 1589 151 1537 151 q 1640 298 1640 151 z "},"‹":{"ha":555,"x_min":50,"x_max":504,"o":"m 504 625 l 319 390 l 504 154 l 314 54 l 50 380 l 50 399 l 314 726 l 504 625 z "},"›":{"ha":555,"x_min":52,"x_max":505,"o":"m 505 399 l 505 380 l 243 54 l 52 154 l 236 390 l 52 625 l 243 726 l 505 399 z "},"₪":{"ha":1412,"x_min":92,"x_max":1331,"o":"m 92 878 l 526 878 q 841 817 732 878 q 900 775 876 796 q 942 725 924 753 q 969 670 959 696 q 984 611 979 644 q 993 492 993 557 l 993 345 l 766 345 l 766 480 q 743 608 766 568 q 715 643 730 629 q 673 663 699 656 q 553 675 631 675 l 353 675 l 353 0 l 92 0 l 92 878 m 1331 878 l 1331 539 q 1313 369 1331 447 q 1253 221 1295 291 q 1145 104 1211 152 q 981 28 1080 56 q 755 0 882 0 l 442 0 l 442 565 l 677 565 l 677 203 l 755 203 q 1009 292 938 203 q 1060 400 1045 338 q 1076 551 1076 463 l 1076 878 l 1331 878 z "},"€":{"ha":814,"x_min":37,"x_max":799,"o":"m 37 653 l 138 653 q 281 916 172 825 q 562 1006 391 1006 q 799 954 685 1006 l 718 751 q 562 786 636 786 q 447 751 488 786 q 397 653 406 715 l 627 653 l 627 514 l 387 514 l 386 494 l 386 485 l 387 456 l 582 456 l 582 317 l 403 317 q 579 205 425 205 q 760 243 678 205 l 760 24 q 562 -14 691 -14 q 283 72 391 -14 q 143 317 175 157 l 37 317 l 37 456 l 125 456 l 123 470 l 123 485 l 125 514 l 37 514 l 37 653 z "},"™":{"ha":1069,"x_min":25,"x_max":1014,"o":"m 389 872 l 273 872 l 273 503 l 140 503 l 140 872 l 25 872 l 25 991 l 389 991 l 389 872 m 1014 503 l 882 503 l 882 774 q 886 848 882 822 l 880 848 l 778 503 l 666 503 l 570 848 l 564 848 q 568 774 568 813 l 568 503 l 437 503 l 437 991 l 632 991 l 725 666 l 827 991 l 1014 991 l 1014 503 z "},"שׁ":{"ha":1096,"x_min":58,"x_max":1059,"o":"m 931 1000 q 931 1014 931 1000 q 948 1044 931 1028 q 995 1059 965 1059 q 1042 1043 1024 1059 q 1059 1000 1059 1027 q 1042 958 1059 974 q 994 942 1024 942 q 948 957 964 942 q 931 1000 931 972 m 517 0 l 132 0 l 58 878 l 314 878 l 348 470 q 367 475 356 470 q 386 488 378 479 q 401 516 393 497 q 411 562 409 536 l 438 878 l 692 878 l 665 566 q 646 466 661 511 q 611 393 631 422 q 564 342 591 364 q 513 310 537 321 q 460 292 488 299 q 374 283 419 283 l 363 283 l 372 203 l 548 203 q 689 270 633 203 q 758 484 745 336 l 791 878 l 1047 878 l 1011 477 q 968 275 1001 361 q 891 137 936 189 q 784 54 847 85 q 658 11 721 22 q 517 0 595 0 z "},"שׂ":{"ha":1096,"x_min":22,"x_max":1047,"o":"m 22 1000 q 22 1014 22 1000 q 39 1044 22 1028 q 86 1059 56 1059 q 133 1043 115 1059 q 151 1000 151 1027 q 133 958 151 974 q 85 942 115 942 q 39 957 56 942 q 22 1000 22 972 m 517 0 l 132 0 l 58 878 l 314 878 l 348 470 q 367 475 356 470 q 386 488 378 479 q 401 516 393 497 q 411 562 409 536 l 438 878 l 692 878 l 665 566 q 646 466 661 511 q 611 393 631 422 q 564 342 591 364 q 513 310 537 321 q 460 292 488 299 q 374 283 419 283 l 363 283 l 372 203 l 548 203 q 689 270 633 203 q 758 484 745 336 l 791 878 l 1047 878 l 1011 477 q 968 275 1001 361 q 891 137 936 189 q 784 54 847 85 q 658 11 721 22 q 517 0 595 0 z "},"שּׁ":{"ha":1096,"x_min":58,"x_max":1054,"o":"m 926 1000 q 926 1014 926 1000 q 943 1044 926 1028 q 989 1059 960 1059 q 1036 1043 1019 1059 q 1054 1000 1054 1027 q 1036 958 1054 974 q 989 942 1019 942 q 942 957 959 942 q 926 1000 926 972 m 517 0 l 132 0 l 58 878 l 314 878 l 348 470 q 367 475 356 470 q 386 488 378 479 q 401 516 393 497 q 411 562 409 536 l 438 878 l 692 878 l 665 566 q 646 466 661 511 q 611 393 631 422 q 564 342 591 364 q 513 310 537 321 q 460 292 488 299 q 374 283 419 283 l 363 283 l 372 203 l 548 203 q 689 270 633 203 q 758 484 745 336 l 791 878 l 1047 878 l 1011 477 q 968 275 1001 361 q 891 137 936 189 q 784 54 847 85 q 658 11 721 22 q 517 0 595 0 m 589 328 q 594 333 589 328 q 621 338 600 338 q 653 327 641 338 q 665 298 665 316 q 653 269 665 280 q 620 258 641 258 q 588 269 600 258 q 577 298 577 279 q 589 328 577 317 z "},"שּׂ":{"ha":1096,"x_min":47,"x_max":1047,"o":"m 47 994 q 47 1008 47 994 q 64 1038 47 1022 q 110 1053 81 1053 q 157 1037 140 1053 q 175 994 175 1021 q 157 952 175 968 q 110 936 140 936 q 63 951 80 936 q 47 994 47 966 m 517 0 l 132 0 l 58 878 l 314 878 l 348 470 q 367 475 356 470 q 386 488 378 479 q 401 516 393 497 q 411 562 409 536 l 438 878 l 692 878 l 665 566 q 646 466 661 511 q 611 393 631 422 q 564 342 591 364 q 513 310 537 321 q 460 292 488 299 q 374 283 419 283 l 363 283 l 372 203 l 548 203 q 689 270 633 203 q 758 484 745 336 l 791 878 l 1047 878 l 1011 477 q 968 275 1001 361 q 891 137 936 189 q 784 54 847 85 q 658 11 721 22 q 517 0 595 0 m 589 328 q 594 333 589 328 q 621 338 600 338 q 653 327 641 338 q 665 298 665 316 q 653 269 665 280 q 620 258 641 258 q 588 269 600 258 q 577 298 577 279 q 589 328 577 317 z "},"אַ":{"ha":935,"x_min":49,"x_max":886,"o":"m 853 878 l 853 559 q 848 486 853 517 q 827 419 843 455 q 692 305 797 345 q 886 0 821 100 l 592 0 l 354 396 q 341 321 341 376 l 341 0 l 79 0 l 79 319 q 84 392 79 360 q 106 460 90 424 q 243 574 138 534 q 49 878 157 709 l 342 878 l 517 581 l 579 484 q 590 557 590 507 l 590 878 l 853 878 m 601 -164 l 334 -164 l 334 -85 l 601 -85 l 601 -164 z "},"אָ":{"ha":935,"x_min":49,"x_max":886,"o":"m 853 878 l 853 559 q 848 486 853 517 q 827 419 843 455 q 692 305 797 345 q 886 0 821 100 l 592 0 l 354 396 q 341 321 341 376 l 341 0 l 79 0 l 79 319 q 84 392 79 360 q 106 460 90 424 q 243 574 138 534 q 49 878 157 709 l 342 878 l 517 581 l 579 484 q 590 557 590 507 l 590 878 l 853 878 m 597 -165 l 505 -165 l 505 -302 l 430 -302 l 430 -165 l 338 -165 l 338 -85 l 597 -85 l 597 -165 z "},"אּ":{"ha":935,"x_min":49,"x_max":886,"o":"m 853 878 l 853 559 q 848 486 853 517 q 827 419 843 455 q 692 305 797 345 q 886 0 821 100 l 592 0 l 354 396 q 341 321 341 376 l 341 0 l 79 0 l 79 319 q 84 392 79 360 q 106 460 90 424 q 243 574 138 534 q 49 878 157 709 l 342 878 l 517 581 l 579 484 q 590 557 590 507 l 590 878 l 853 878 m 369 109 q 369 123 369 109 q 386 153 369 137 q 432 168 403 168 q 479 152 462 168 q 497 109 497 136 q 479 67 497 83 q 432 51 462 51 q 386 66 402 51 q 369 109 369 81 z "},"בּ":{"ha":811,"x_min":56,"x_max":792,"o":"m 325 892 q 519 869 448 892 q 632 806 599 845 q 684 704 671 761 q 696 569 696 648 l 696 203 l 792 203 l 792 0 l 56 0 l 56 203 l 433 203 l 433 557 q 300 688 433 688 q 98 677 216 688 l 56 673 l 56 874 q 325 892 138 892 m 194 456 q 194 470 194 456 q 211 500 194 484 q 257 515 228 515 q 304 499 287 515 q 322 456 322 483 q 304 414 322 430 q 257 398 287 398 q 211 413 227 398 q 194 456 194 429 z "},"גּ":{"ha":667,"x_min":34,"x_max":576,"o":"m 250 34 q 238 25 250 34 q 191 1 227 16 q 120 -14 155 -14 q 34 0 84 -14 l 56 233 q 143 222 102 222 q 266 259 218 222 q 313 372 313 295 l 313 600 q 257 684 313 684 q 140 669 197 684 l 122 665 l 122 870 q 286 892 208 892 q 417 877 365 892 q 500 839 469 863 q 548 778 530 816 q 571 702 566 740 q 576 612 576 664 l 576 0 l 379 0 l 338 123 l 326 123 q 295 79 318 106 q 250 34 272 52 m 126 456 q 126 470 126 456 q 143 500 126 484 q 190 515 160 515 q 237 499 219 515 q 254 456 254 483 q 237 414 254 430 q 189 398 219 398 q 143 413 159 398 q 126 456 126 429 z "},"דּ":{"ha":770,"x_min":16,"x_max":751,"o":"m 751 878 l 751 692 q 661 634 685 667 q 637 528 637 601 l 637 0 l 374 0 l 374 533 q 437 675 374 622 l 16 675 l 16 878 l 751 878 m 123 456 q 123 470 123 456 q 140 500 123 484 q 187 515 157 515 q 234 499 216 515 q 252 456 252 483 q 234 414 252 430 q 186 398 216 398 q 140 413 157 398 q 123 456 123 429 z "},"הּ":{"ha":915,"x_min":92,"x_max":827,"o":"m 456 892 q 696 850 618 892 q 762 801 736 828 q 803 733 789 773 q 822 653 817 693 q 827 557 827 612 l 827 0 l 563 0 l 563 557 q 430 688 563 688 q 148 671 311 688 l 92 665 l 92 866 q 456 892 253 892 m 394 456 q 394 470 394 456 q 411 500 394 484 q 457 515 428 515 q 505 499 487 515 q 522 456 522 483 q 505 414 522 430 q 457 398 487 398 q 411 413 427 398 q 394 456 394 429 m 92 0 l 92 512 l 355 512 l 355 0 l 92 0 z "},"וּ":{"ha":446,"x_min":-64,"x_max":355,"o":"m 92 0 l 92 878 l 355 878 l 355 0 l 92 0 m -64 456 q -64 470 -64 456 q -47 500 -64 484 q 0 515 -30 515 q 47 499 29 515 q 64 456 64 483 q 47 414 64 430 q -1 398 29 398 q -47 413 -31 398 q -64 456 -64 429 z "},"זּ":{"ha":496,"x_min":-61,"x_max":480,"o":"m 480 878 l 480 689 q 420 620 446 662 q 381 540 395 577 q 363 458 368 503 q 356 385 357 414 q 355 302 355 356 l 355 0 l 92 0 l 92 302 q 237 675 92 555 l 62 675 l 62 878 l 480 878 m -61 456 q -61 470 -61 456 q -44 500 -61 484 q 2 515 -27 515 q 50 499 32 515 q 67 456 67 483 q 50 414 67 430 q 2 398 32 398 q -44 413 -28 398 q -61 456 -61 429 z "},"טּ":{"ha":916,"x_min":88,"x_max":858,"o":"m 444 883 q 552 892 500 892 q 654 879 604 892 q 743 837 703 867 q 808 755 783 806 q 858 451 858 652 q 755 109 858 231 q 465 -13 653 -13 q 317 19 386 -13 q 197 109 248 50 q 117 255 146 167 q 88 451 88 344 l 88 878 l 352 878 l 352 451 q 471 197 352 197 q 563 257 532 197 q 593 449 593 317 q 567 632 593 581 q 476 684 541 684 l 444 680 l 444 883 m 406 456 q 406 470 406 456 q 422 500 406 484 q 469 515 439 515 q 516 499 498 515 q 534 456 534 483 q 516 414 534 430 q 469 398 498 398 q 422 413 439 398 q 406 456 406 429 z "},"יּ":{"ha":431,"x_min":-72,"x_max":349,"o":"m 86 284 l 86 878 l 349 878 l 349 469 l 203 284 l 86 284 m -72 627 q -72 641 -72 627 q -55 671 -72 655 q -8 686 -38 686 q 39 670 21 686 q 56 627 56 654 q 39 585 56 601 q -9 569 21 569 q -55 584 -39 569 q -72 627 -72 600 z "},"ךּ":{"ha":751,"x_min":16,"x_max":663,"o":"m 292 892 q 442 869 376 892 q 548 810 507 847 q 615 720 589 773 q 663 494 663 626 l 663 -334 l 400 -334 l 400 496 q 397 556 400 531 q 384 608 394 581 q 357 650 374 634 q 235 687 318 687 q 49 678 147 687 l 16 675 l 16 881 q 292 892 131 892 m 126 456 q 126 470 126 456 q 143 500 126 484 q 190 515 160 515 q 237 499 219 515 q 254 456 254 483 q 237 414 254 430 q 189 398 219 398 q 143 413 159 398 q 126 456 126 429 z "},"כּ":{"ha":749,"x_min":45,"x_max":692,"o":"m 321 892 q 471 869 406 892 q 577 810 536 847 q 645 720 618 773 q 692 494 692 626 l 692 383 q 684 265 692 318 q 651 158 675 212 q 587 68 627 104 q 479 9 547 32 q 321 -14 412 -14 q 45 5 143 -14 l 45 210 q 296 198 150 198 q 399 247 370 198 q 429 383 429 296 l 429 496 q 426 556 429 531 q 413 608 423 581 q 387 650 404 634 q 264 687 347 687 q 77 678 176 687 l 45 675 l 45 881 q 321 892 160 892 m 175 456 q 175 470 175 456 q 192 500 175 484 q 238 515 209 515 q 286 499 268 515 q 303 456 303 483 q 286 414 303 430 q 238 398 268 398 q 192 413 208 398 q 175 456 175 429 z "},"לּ":{"ha":767,"x_min":34,"x_max":739,"o":"m 739 878 l 739 718 l 624 326 l 625 327 l 551 0 l 292 0 l 368 336 l 469 675 l 34 675 l 34 1052 l 297 1052 l 297 878 l 739 878 m 144 456 q 144 470 144 456 q 161 500 144 484 q 207 515 178 515 q 254 499 237 515 q 272 456 272 483 q 254 414 272 430 q 207 398 237 398 q 160 413 177 398 q 144 456 144 429 z "},"מּ":{"ha":966,"x_min":58,"x_max":878,"o":"m 302 878 q 332 789 326 838 l 342 789 q 380 822 353 802 q 434 856 408 842 q 502 881 460 869 q 599 892 543 892 q 706 872 655 892 q 790 818 758 852 q 842 732 823 784 q 878 494 878 641 l 878 0 l 454 0 l 454 203 l 610 203 l 610 494 q 603 598 610 566 q 583 646 595 631 q 501 683 557 683 q 455 674 477 683 q 418 651 433 665 q 374 602 385 622 l 368 593 l 317 0 l 58 0 l 109 555 q 114 645 114 604 q 71 878 114 760 l 302 878 m 420 456 q 420 470 420 456 q 437 500 420 484 q 483 515 454 515 q 530 499 513 515 q 548 456 548 483 q 530 414 548 430 q 483 398 513 398 q 436 413 453 398 q 420 456 420 429 z "},"נּ":{"ha":614,"x_min":49,"x_max":526,"o":"m 87 881 q 225 892 142 892 q 359 876 309 892 q 441 834 410 861 q 492 770 473 808 q 518 690 511 731 q 526 599 526 649 l 526 275 q 518 142 526 211 q 503 37 510 73 l 495 0 l 49 0 l 49 203 l 254 203 q 262 275 262 236 l 262 599 q 247 659 262 634 q 197 684 232 684 q 105 677 153 684 l 87 675 l 87 881 m 71 456 q 71 470 71 456 q 87 500 71 484 q 134 515 104 515 q 181 499 163 515 q 199 456 199 483 q 181 414 199 430 q 134 398 163 398 q 87 413 104 398 q 71 456 71 429 z "},"סּ":{"ha":887,"x_min":58,"x_max":829,"o":"m 67 876 q 443 892 259 892 q 727 773 626 892 q 829 440 829 654 q 726 106 829 226 q 441 -13 623 -13 q 158 105 258 -13 q 58 439 58 223 q 140 673 58 584 l 67 669 l 67 876 m 325 439 q 353 255 325 314 q 443 196 381 196 q 534 255 505 196 q 562 439 562 315 q 534 626 562 564 q 444 688 505 688 l 391 685 q 325 439 325 589 m 380 456 q 380 470 380 456 q 397 500 380 484 q 443 515 414 515 q 490 499 473 515 q 508 456 508 483 q 490 414 508 430 q 443 398 473 398 q 396 413 413 398 q 380 456 380 429 z "},"ףּ":{"ha":888,"x_min":29,"x_max":800,"o":"m 29 585 q 53 702 29 646 q 114 793 77 758 q 203 850 152 828 q 414 892 298 892 q 639 833 550 892 q 703 776 672 811 q 754 694 733 741 q 800 439 800 593 l 800 -334 l 533 -334 l 533 439 q 515 619 533 578 q 461 675 495 664 q 412 682 441 682 q 358 673 382 682 q 323 652 334 664 q 304 625 311 641 q 295 578 295 603 q 304 533 295 554 q 329 501 314 512 q 378 477 353 484 l 434 466 l 392 279 l 326 281 q 114 353 193 284 q 29 585 29 427 m 343 588 q 343 602 343 588 q 360 631 343 616 q 407 647 377 647 q 454 631 436 647 q 471 588 471 614 q 454 546 471 562 q 406 530 436 530 q 360 545 376 530 q 343 588 343 560 z "},"פּ":{"ha":887,"x_min":58,"x_max":829,"o":"m 58 575 q 82 702 58 646 q 143 793 106 758 q 233 850 181 828 q 444 892 327 892 q 669 833 579 892 q 732 776 701 811 q 783 694 762 741 q 829 439 829 593 q 808 248 829 330 q 752 117 787 166 q 667 38 718 68 q 562 -3 615 7 q 434 -14 509 -14 q 281 -9 358 -14 q 170 1 204 -4 l 134 6 l 134 205 q 444 190 289 190 q 538 252 512 190 q 557 329 554 290 q 561 388 560 368 q 562 439 562 408 q 561 491 562 471 q 558 539 560 511 q 551 586 555 568 q 538 624 547 604 q 517 655 529 644 q 450 682 488 682 q 388 673 412 682 q 352 652 363 664 q 334 625 340 641 q 324 578 324 603 q 334 533 324 554 q 358 501 343 512 q 408 477 382 484 l 463 466 l 421 277 l 355 281 q 58 575 58 300 m 380 574 q 380 588 380 574 q 397 617 380 602 q 443 633 414 633 q 490 616 473 633 q 508 574 508 600 q 490 531 508 547 q 443 515 473 515 q 396 531 413 515 q 380 574 380 546 z "},"צּ":{"ha":886,"x_min":31,"x_max":838,"o":"m 833 0 l 51 0 l 51 203 l 408 203 l 505 197 l 344 397 l 31 878 l 321 878 l 531 540 q 559 676 551 595 l 576 878 l 838 878 l 821 701 q 815 646 818 667 q 803 581 813 625 q 778 503 793 536 q 734 426 763 469 q 668 347 706 382 l 833 149 l 833 0 m 115 358 q 115 372 115 358 q 132 401 115 386 q 179 417 149 417 q 226 401 208 417 q 243 358 243 385 q 226 316 243 332 q 178 300 208 300 q 132 315 149 300 q 115 358 115 330 z "},"קּ":{"ha":941,"x_min":92,"x_max":914,"o":"m 705 41 l 705 0 l 444 0 l 444 41 q 461 190 444 94 q 505 355 479 286 l 625 675 l 92 675 l 92 878 l 914 878 l 914 726 l 772 349 q 705 41 705 174 m 92 -334 l 92 529 l 355 529 l 355 -334 l 92 -334 m 376 456 q 376 470 376 456 q 393 500 376 484 q 439 515 410 515 q 486 499 469 515 q 504 456 504 483 q 486 414 504 430 q 439 398 469 398 q 392 413 409 398 q 376 456 376 429 z "},"רּ":{"ha":764,"x_min":35,"x_max":675,"o":"m 35 878 q 278 892 173 892 q 444 882 384 892 q 544 850 504 871 q 611 801 585 828 q 651 733 637 774 q 670 653 665 693 q 675 557 675 612 l 675 0 l 412 0 l 412 557 q 279 688 412 688 q 35 673 178 688 l 35 878 m 180 456 q 180 470 180 456 q 197 500 180 484 q 244 515 214 515 q 291 499 273 515 q 309 456 309 483 q 291 414 309 430 q 243 398 273 398 q 197 413 214 398 q 180 456 180 429 z "},"שּ":{"ha":1096,"x_min":58,"x_max":1047,"o":"m 517 0 l 132 0 l 58 878 l 314 878 l 348 470 q 367 475 356 470 q 386 488 378 479 q 401 516 393 497 q 411 562 409 536 l 438 878 l 692 878 l 665 566 q 646 466 661 511 q 611 393 631 422 q 564 342 591 364 q 513 310 537 321 q 460 292 488 299 q 374 283 419 283 l 363 283 l 372 203 l 548 203 q 689 270 633 203 q 758 484 745 336 l 791 878 l 1047 878 l 1011 477 q 968 275 1001 361 q 891 137 936 189 q 784 54 847 85 q 658 11 721 22 q 517 0 595 0 m 589 328 q 594 333 589 328 q 621 338 600 338 q 653 327 641 338 q 665 298 665 316 q 653 269 665 280 q 620 258 641 258 q 588 269 600 258 q 577 298 577 279 q 589 328 577 317 z "},"תּ":{"ha":975,"x_min":34,"x_max":886,"o":"m 798 827 q 842 780 825 805 q 869 720 859 755 q 886 568 886 661 l 886 0 l 623 0 l 623 557 q 490 688 623 688 q 442 687 456 688 l 442 268 q 435 178 442 218 q 409 101 428 138 q 358 40 389 64 q 158 -13 290 -13 q 97 -6 128 -13 q 50 8 66 1 l 34 16 l 34 205 q 120 195 85 195 q 167 212 155 195 q 179 268 179 229 l 179 671 l 85 664 l 85 866 q 514 891 313 891 q 798 827 715 891 m 465 450 q 465 464 465 450 q 482 493 465 477 q 529 509 499 509 q 576 492 558 509 q 593 450 593 476 q 576 407 593 423 q 528 391 558 391 q 482 407 498 391 q 465 450 465 422 z "},"וֹ":{"ha":446,"x_min":87,"x_max":355,"o":"m 87 1000 q 87 1014 87 1000 q 104 1044 87 1028 q 151 1059 121 1059 q 198 1043 180 1059 q 216 1000 216 1027 q 198 958 216 974 q 151 942 180 942 q 104 957 121 942 q 87 1000 87 972 m 92 0 l 92 878 l 355 878 l 355 0 l 92 0 z "}," ":{"ha":361,"x_min":0,"x_max":0,"o":""}}}
